# Blender v2.77 (sub 0) OBJ File: 'rock1.blend'
# www.blender.org
o Cube
v 0.248072 -0.293962 -0.508600
v 1.059522 -0.022268 0.079318
v 0.214802 -0.002054 1.011644
v -1.052915 0.100798 -0.270876
v 0.676256 0.535434 0.466157
v -0.046313 0.732796 -0.044007
v -0.523409 0.551519 -0.562645
v -0.962237 0.245088 0.611999
v -0.144842 0.457673 0.888589
v 0.621397 0.373577 -0.857539
v -0.642178 -0.040095 -0.861586
v -0.091953 -0.379456 0.253485
vt 0.3149 0.4272
vt 0.3277 0.4080
vt 0.3334 0.4207
vt 0.4269 0.4328
vt 0.4437 0.4574
vt 0.4202 0.4514
vt 0.1988 0.4636
vt 0.1768 0.4717
vt 0.1752 0.4576
vt 0.4470 0.4273
vt 0.4202 0.4172
vt 0.4467 0.4111
vt 0.1566 0.4079
vt 0.1651 0.3900
vt 0.1832 0.4018
vt 0.4286 0.3993
vt 0.4470 0.3926
vt 0.2112 0.4391
vt 0.2112 0.4636
vt 0.1943 0.4390
vt 0.2112 0.4516
vt 0.2261 0.4505
vt 0.2261 0.4772
vt 0.2173 0.4390
vt 0.1992 0.4390
vt 0.1877 0.4234
vt 0.2145 0.4335
vt 0.1682 0.4427
vt 0.1682 0.4710
vt 0.1598 0.4607
vt 0.1598 0.4462
vt 0.1476 0.4620
vt 0.1493 0.4427
vt 0.1598 0.4743
vt 0.3602 0.4540
vt 0.3569 0.4361
vt 0.3718 0.4617
vt 0.3109 0.4002
vt 0.3334 0.3909
vt 0.3194 0.3833
vt 0.2997 0.3862
vt 0.2933 0.4094
vn 0.5892 -0.6078 -0.5324
vn 0.3444 0.9301 -0.1280
vn 0.0491 0.9279 -0.3695
vn -0.4255 0.9017 0.0763
vn -0.3189 0.9177 0.2370
vn 0.0577 0.9559 0.2881
vn 0.7831 0.6126 -0.1074
vn -0.1510 0.4698 -0.8698
vn -0.6887 0.4324 -0.5820
vn -0.6642 0.7456 -0.0536
vn -0.3211 0.0023 0.9471
vn 0.3604 0.4938 0.7914
vn 0.7408 0.0442 0.6702
vn 0.1767 -0.5318 -0.8282
vn -0.1965 -0.9608 -0.1955
vn -0.4143 -0.9073 -0.0717
vn -0.5197 -0.8330 0.1895
vn -0.3421 -0.7786 0.5260
vn 0.2999 -0.9536 0.0268
vn 0.3243 -0.8926 0.3131
s off
f 2/1/1 1/2/1 10/3/1
f 5/4/2 10/5/2 6/6/2
f 10/7/3 7/8/3 6/9/3
f 7/10/4 8/11/4 6/12/4
f 8/13/5 9/14/5 6/15/5
f 6/12/6 9/16/6 5/17/6
f 2/18/7 10/19/7 5/20/7
f 11/21/8 7/22/8 10/23/8
f 11/21/9 4/24/9 7/22/9
f 4/25/10 8/26/10 7/27/10
f 8/28/11 3/29/11 9/30/11
f 3/31/12 5/32/12 9/33/12
f 3/31/13 2/34/13 5/32/13
f 1/35/14 11/36/14 10/37/14
f 1/2/15 12/38/15 11/39/15
f 11/39/16 12/38/16 4/40/16
f 12/38/17 8/41/17 4/40/17
f 12/38/18 3/42/18 8/41/18
f 2/1/19 12/38/19 1/2/19
f 12/38/20 2/1/20 3/42/20
