# Blender v2.77 (sub 0) OBJ File: 'rock1.blend'
# www.blender.org
o Icosphere
v -0.201816 0.004800 -0.000000
v 0.063213 0.042803 -0.231955
v -0.138646 0.160709 -0.189173
v 0.110816 0.142055 -0.211795
v -0.042289 0.266384 -0.030725
v -0.015340 0.003801 0.190317
v 0.211207 0.052316 0.123648
v 0.042289 -0.003763 -0.030725
v 0.247778 0.114282 -0.000000
v -0.076568 0.098096 0.235650
v -0.245817 0.147213 0.029821
v 0.015340 0.208578 0.190317
v 0.201816 0.207579 -0.000000
vt 0.3290 0.4314
vt 0.3106 0.4435
vt 0.3095 0.4188
vt 0.2085 0.4364
vt 0.2085 0.4694
vt 0.1914 0.4519
vt 0.1772 0.4658
vt 0.1682 0.4596
vt 0.1772 0.4374
vt 0.4336 0.4387
vt 0.4488 0.4139
vt 0.4575 0.4334
vt 0.1722 0.4374
vt 0.1531 0.4240
vt 0.1770 0.4187
vt 0.1914 0.4295
vt 0.4277 0.4565
vt 0.4277 0.4787
vt 0.4132 0.4679
vt 0.4719 0.4221
vt 0.1687 0.4380
vt 0.2035 0.4333
vt 0.1540 0.4010
vt 0.1683 0.3992
vt 0.2085 0.4441
vt 0.2268 0.4365
vt 0.2268 0.4611
vt 0.2169 0.4333
vt 0.1962 0.4729
vt 0.1531 0.4374
vt 0.1682 0.4385
vt 0.1561 0.4624
vt 0.1682 0.4633
vt 0.2185 0.4691
vt 0.2095 0.4617
vt 0.2145 0.4333
vt 0.2268 0.3992
vt 0.2268 0.4273
vt 0.3449 0.4189
vt 0.3326 0.4530
vn -0.0318 -0.9992 0.0259
vn -0.4820 -0.5903 -0.6475
vn 0.7924 -0.2688 -0.5476
vn -0.4026 0.8544 0.3284
vn -0.5402 0.8138 -0.2142
vn 0.0112 0.8287 -0.5595
vn 0.2617 0.8846 -0.3861
vn 0.2061 0.9585 0.1969
vn 0.7952 0.3917 -0.4629
vn -0.0707 0.2310 -0.9704
vn -0.5025 0.6513 0.5686
vn 0.6140 0.5141 0.5989
vn 0.8066 0.3973 0.4377
vn -0.8793 -0.1792 -0.4413
vn -0.7629 -0.3496 0.5439
vn -0.5592 -0.6250 0.5447
vn 0.3715 0.0708 0.9257
vn 0.3202 -0.2335 0.9181
vn 0.5809 -0.7834 -0.2208
vn -0.0632 -0.9708 -0.2312
vn 0.4389 -0.8844 -0.1590
vn 0.2349 -0.9674 0.0944
s off
f 8/1/1 6/2/1 1/3/1
f 2/4/2 1/5/2 3/6/2
f 2/7/3 4/8/3 9/9/3
f 11/10/4 12/11/4 5/12/4
f 3/13/5 11/14/5 5/15/5
f 4/16/6 3/13/6 5/15/6
f 13/17/7 4/18/7 5/19/7
f 12/11/8 13/20/8 5/12/8
f 9/9/9 4/8/9 13/21/9
f 2/4/10 3/6/10 4/22/10
f 10/23/11 12/24/11 11/14/11
f 7/25/12 13/26/12 12/27/12
f 7/25/13 9/28/13 13/26/13
f 3/6/14 1/5/14 11/29/14
f 11/30/15 1/31/15 10/32/15
f 1/31/16 6/33/16 10/32/16
f 10/34/17 7/25/17 12/27/17
f 10/34/18 6/35/18 7/25/18
f 7/36/19 2/37/19 9/38/19
f 8/1/20 1/3/20 2/39/20
f 7/40/21 8/1/21 2/39/21
f 8/1/22 7/40/22 6/2/22
