# Blender v2.77 (sub 0) OBJ File: ''
# www.blender.org
o Cylinder
v -0.000000 0.000000 -0.208701
v -0.000000 1.000000 -0.208701
v 0.147574 0.000000 -0.147574
v 0.147574 1.000000 -0.147574
v 0.208701 0.000000 0.000000
v 0.208701 1.000000 0.000000
v 0.147574 0.000000 0.147574
v 0.147574 1.000000 0.147574
v -0.000000 0.000000 0.208701
v -0.000000 1.000000 0.208701
v -0.147574 0.000000 0.147574
v -0.147574 1.000000 0.147574
v -0.208701 0.000000 -0.000000
v -0.208701 1.000000 -0.000000
v -0.147574 0.000000 -0.147574
v -0.147574 1.000000 -0.147574
vt 0.1036 0.0000
vt 0.2500 0.7217
vt 0.1036 0.7217
vt 0.5000 0.7217
vt 0.3964 0.0000
vt 0.5000 0.0000
vt 0.3964 0.7217
vt 0.2500 0.0000
vt 1.0000 0.7217
vt 0.8964 0.0000
vt 1.0000 0.0000
vt 0.8964 0.7217
vt 0.7500 0.0000
vt 0.7500 0.7217
vt 0.6464 0.0000
vt 0.6036 1.0000
vt 0.3536 0.8032
vt 0.4571 0.7217
vt 0.6464 0.7217
vt 0.5000 0.0000
vt 0.0000 0.0000
vt 0.0000 0.7217
vt 0.3536 0.8032
vt 0.2500 1.0000
vt 0.0000 0.9185
vt 0.2500 0.0000
vt 0.2500 0.7217
vt 0.6036 0.7217
vt 0.7071 0.8032
vt 0.7071 0.9185
vt 0.4571 1.0000
vt 0.3536 0.9185
vt 0.5000 0.7217
vt 0.0000 0.8032
vt 0.1036 0.7217
vt 0.2500 0.7217
vt 0.3536 0.9185
vt 0.1036 1.0000
vn 0.3827 0.0000 -0.9239
vn 0.9239 0.0000 -0.3827
vn 0.9239 0.0000 0.3827
vn 0.3827 0.0000 0.9239
vn -0.3827 0.0000 0.9239
vn -0.9239 0.0000 0.3827
vn 0.0000 1.0000 0.0000
vn -0.9239 0.0000 -0.3827
vn -0.3827 0.0000 -0.9239
vn 0.0000 -1.0000 0.0000
s off
f 2/1/1 3/2/1 1/3/1
f 4/4/2 5/5/2 3/6/2
f 6/7/3 7/8/3 5/5/3
f 8/9/4 9/10/4 7/11/4
f 10/12/5 11/13/5 9/10/5
f 12/14/6 13/15/6 11/13/6
f 14/16/7 8/17/7 6/18/7
f 14/19/8 15/20/8 13/15/8
f 16/21/9 1/3/9 15/22/9
f 7/23/10 11/24/10 15/25/10
f 2/1/1 4/26/1 3/2/1
f 4/4/2 6/7/2 5/5/2
f 6/7/3 8/27/3 7/8/3
f 8/9/4 10/12/4 9/10/4
f 10/12/5 12/14/5 11/13/5
f 12/14/6 14/19/6 13/15/6
f 6/18/7 4/28/7 2/29/7
f 2/29/7 16/30/7 14/16/7
f 14/16/7 12/31/7 10/32/7
f 10/32/7 8/17/7 14/16/7
f 6/18/7 2/29/7 14/16/7
f 14/19/8 16/33/8 15/20/8
f 16/21/9 2/1/9 1/3/9
f 15/25/10 1/34/10 3/35/10
f 3/35/10 5/36/10 7/23/10
f 7/23/10 9/37/10 11/24/10
f 11/24/10 13/38/10 15/25/10
f 15/25/10 3/35/10 7/23/10
