# Blender v2.77 (sub 0) OBJ File: ''
# www.blender.org
o Sphere
v -0.382683 0.923880 0.000000
v -0.707107 0.707107 0.000000
v -0.923880 0.382683 0.000000
v -1.000000 -0.000000 0.000000
v -0.923880 -0.382684 0.000000
v -0.707107 -0.707107 0.000000
v -0.382683 -0.923880 0.000000
v -0.353553 0.923880 -0.146447
v -0.653281 0.707107 -0.270598
v -0.853553 0.382683 -0.353553
v -0.923880 -0.000000 -0.382683
v -0.853553 -0.382684 -0.353553
v -0.653281 -0.707107 -0.270598
v -0.353553 -0.923880 -0.146447
v -0.270598 0.923880 -0.270598
v -0.500000 0.707107 -0.500000
v -0.653281 0.382683 -0.653281
v -0.707107 -0.000000 -0.707107
v -0.653281 -0.382684 -0.653281
v -0.500000 -0.707107 -0.500000
v -0.270598 -0.923880 -0.270598
v -0.000000 -1.000000 0.000000
v -0.146447 0.923880 -0.353553
v -0.270598 0.707107 -0.653281
v -0.353553 0.382683 -0.853553
v -0.382683 -0.000000 -0.923879
v -0.353553 -0.382684 -0.853553
v -0.270598 -0.707107 -0.653281
v -0.146447 -0.923880 -0.353553
v -0.000000 0.923880 -0.382683
v -0.000000 0.707107 -0.707107
v -0.000000 0.382683 -0.923879
v -0.000000 -0.000000 -1.000000
v -0.000000 -0.382684 -0.923879
v -0.000000 -0.707107 -0.707107
v -0.000000 -0.923880 -0.382683
v 0.146446 0.923880 -0.353553
v 0.270598 0.707107 -0.653281
v 0.353553 0.382683 -0.853553
v 0.382683 -0.000000 -0.923879
v 0.353553 -0.382684 -0.853553
v 0.270598 -0.707107 -0.653281
v 0.146446 -0.923880 -0.353553
v -0.000000 1.000000 0.000000
v 0.270598 0.923880 -0.270598
v 0.500000 0.707107 -0.500000
v 0.653281 0.382683 -0.653281
v 0.707107 -0.000000 -0.707106
v 0.653281 -0.382684 -0.653281
v 0.500000 -0.707107 -0.500000
v 0.270598 -0.923880 -0.270598
v 0.353553 0.923880 -0.146446
v 0.653281 0.707107 -0.270598
v 0.853553 0.382683 -0.353553
v 0.923879 -0.000000 -0.382683
v 0.853553 -0.382684 -0.353553
v 0.653281 -0.707107 -0.270598
v 0.353553 -0.923880 -0.146446
v 0.382683 0.923880 0.000000
v 0.707106 0.707107 0.000000
v 0.923879 0.382683 0.000000
v 1.000000 -0.000000 0.000000
v 0.923879 -0.382684 0.000000
v 0.707106 -0.707107 0.000000
v 0.382683 -0.923880 0.000000
v 0.353553 0.923880 0.146447
v 0.653281 0.707107 0.270598
v 0.853553 0.382683 0.353554
v 0.923879 -0.000000 0.382684
v 0.853553 -0.382684 0.353554
v 0.653281 -0.707107 0.270598
v 0.353553 -0.923880 0.146447
v 0.270598 0.923880 0.270598
v 0.499999 0.707107 0.500000
v 0.653281 0.382683 0.653282
v 0.707106 -0.000000 0.707107
v 0.653281 -0.382684 0.653282
v 0.499999 -0.707107 0.500000
v 0.270598 -0.923880 0.270598
v 0.146446 0.923880 0.353553
v 0.270597 0.707107 0.653281
v 0.353553 0.382683 0.853553
v 0.382683 -0.000000 0.923879
v 0.353553 -0.382684 0.853553
v 0.270597 -0.707107 0.653281
v 0.146446 -0.923880 0.353553
v -0.000000 0.923880 0.382683
v -0.000000 0.707107 0.707106
v -0.000001 0.382683 0.923879
v -0.000001 -0.000000 1.000000
v -0.000001 -0.382684 0.923879
v -0.000000 -0.707107 0.707106
v -0.000000 -0.923880 0.382683
v -0.146447 0.923880 0.353553
v -0.270598 0.707107 0.653281
v -0.353554 0.382683 0.853553
v -0.382684 -0.000000 0.923879
v -0.353554 -0.382684 0.853553
v -0.270598 -0.707107 0.653281
v -0.146447 -0.923880 0.353553
v -0.270598 0.923880 0.270598
v -0.500000 0.707107 0.499999
v -0.653282 0.382683 0.653281
v -0.707107 -0.000000 0.707106
v -0.653282 -0.382684 0.653281
v -0.500000 -0.707107 0.499999
v -0.270598 -0.923880 0.270598
v -0.353553 0.923880 0.146446
v -0.653281 0.707107 0.270598
v -0.853553 0.382683 0.353553
v -0.923880 -0.000000 0.382683
v -0.853553 -0.382684 0.353553
v -0.653281 -0.707107 0.270598
v -0.353553 -0.923880 0.146446
vt 0.7922 0.4614
vt 0.7370 0.5499
vt 0.7331 0.5029
vt 0.9167 0.3999
vt 0.8632 0.5388
vt 0.8530 0.4252
vt 0.9826 0.3901
vt 1.0492 0.4857
vt 0.9874 0.5051
vt 0.1127 0.4209
vt 0.1739 0.4559
vt 0.1112 0.4684
vt 0.6739 0.5441
vt 0.8003 0.5480
vt 0.9255 0.5237
vt 0.0492 0.4857
vt 0.0487 0.3976
vt 1.0014 0.6172
vt 0.1184 0.5138
vt 0.7321 0.5965
vt 0.7958 0.6357
vt 0.9350 0.6474
vt 0.0620 0.5701
vt 0.8647 0.6541
vt 0.7181 0.6362
vt 0.7749 0.7164
vt 0.9492 0.7704
vt 0.0884 0.6427
vt 0.8541 0.7683
vt 0.0303 0.7215
vt 0.0014 0.6172
vt 0.1332 0.5511
vt 0.1307 0.6922
vt 0.7293 0.7762
vt 0.6957 0.6621
vt 0.8078 0.8736
vt 0.0906 0.8041
vt 0.1543 0.5747
vt 1.0303 0.7215
vt 0.9872 0.8901
vt 0.6599 0.7930
vt 0.6686 0.6687
vt 1.2535 0.9499
vt 0.6311 0.9159
vt 0.1845 0.7051
vt 0.1956 0.8293
vt 0.1786 0.5806
vt 1.0906 0.8041
vt 0.2021 0.5676
vt 0.6426 0.6542
vt 0.5976 0.7571
vt 0.3815 0.8451
vt 0.2535 0.9499
vt 0.2351 0.6769
vt 0.5141 0.8355
vt 0.2856 0.7767
vt 0.4875 0.7250
vt 0.5625 0.6870
vt 0.4051 0.7234
vt 0.2211 0.5382
vt 0.2713 0.6169
vt 0.6232 0.6222
vt 0.3311 0.6830
vt 0.6127 0.5791
vt 0.4826 0.6099
vt 0.3530 0.5748
vt 0.2331 0.4971
vt 0.5487 0.6024
vt 0.4167 0.6001
vt 0.2922 0.5386
vt 0.4874 0.4949
vt 0.3632 0.4612
vt 0.2370 0.4501
vt 0.6112 0.5316
vt 0.5492 0.5143
vt 0.4255 0.4763
vt 0.3003 0.4520
vt 0.6184 0.4862
vt 0.5014 0.3828
vt 0.5620 0.4299
vt 0.4350 0.3526
vt 0.2958 0.3643
vt 0.3647 0.3459
vt 0.2321 0.4035
vt 0.4492 0.2296
vt 0.2181 0.3638
vt 0.2749 0.2836
vt 0.5884 0.3573
vt 0.6332 0.4489
vt 0.5303 0.2785
vt 0.3541 0.2317
vt 0.6543 0.4253
vt 0.5906 0.1959
vt 0.2293 0.2238
vt 0.3078 0.1264
vt 0.1957 0.3379
vt 0.6307 0.3078
vt 0.4872 0.1099
vt 0.1311 0.0841
vt 0.1686 0.3313
vt 0.6786 0.4194
vt 0.6956 0.1707
vt 0.6845 0.2949
vt 0.7535 0.0501
vt 0.1599 0.2070
vt 0.7021 0.4324
vt 0.7856 0.2233
vt 0.7351 0.3231
vt 1.0141 0.1645
vt 0.8815 0.1549
vt 0.0976 0.2429
vt 0.0141 0.1645
vt 0.1426 0.3458
vt 0.1232 0.3778
vt 0.0625 0.3130
vt 0.7713 0.3831
vt 0.7211 0.4618
vt 0.8311 0.3170
vt 1.0625 0.3130
vt 0.9875 0.2750
vt 0.9051 0.2766
vt 1.0487 0.3976
vt 1.0620 0.5701
vt 1.1956 0.8293
vt 1.1311 0.0841
vt 1.0976 0.2429
vn -0.7188 -0.6952 0.0000
vn -0.3724 -0.9152 -0.1542
vn -0.4031 -0.9152 0.0000
vn -1.0000 0.0000 0.0000
vn -0.8567 -0.3743 -0.3548
vn -0.9273 -0.3743 0.0000
vn -0.9273 0.3743 0.0000
vn -0.6641 0.6952 -0.2751
vn -0.8567 0.3743 -0.3548
vn -0.4031 0.9152 0.0000
vn 0.0000 1.0000 0.0000
vn -0.3724 0.9152 -0.1542
vn 0.0000 -1.0000 0.0000
vn -0.6641 -0.6952 -0.2751
vn -0.9239 0.0000 -0.3827
vn -0.7188 0.6952 0.0000
vn -0.6557 0.3743 -0.6557
vn -0.2850 0.9152 -0.2850
vn -0.2850 -0.9152 -0.2850
vn -0.5083 -0.6952 -0.5083
vn -0.7071 0.0000 -0.7071
vn -0.5083 0.6952 -0.5083
vn -0.6557 -0.3743 -0.6557
vn -0.1542 -0.9152 -0.3724
vn -0.2751 -0.6952 -0.6641
vn -0.3827 0.0000 -0.9239
vn -0.2751 0.6952 -0.6641
vn -0.3548 -0.3743 -0.8567
vn -0.3548 0.3743 -0.8567
vn -0.1542 0.9152 -0.3724
vn 0.0000 0.6952 -0.7188
vn 0.0000 -0.6952 -0.7188
vn 0.0000 -0.9152 -0.4031
vn 0.0000 -0.3743 -0.9273
vn 0.0000 0.3743 -0.9273
vn 0.0000 0.9152 -0.4031
vn 0.0000 0.0000 -1.0000
vn 0.2751 -0.6952 -0.6641
vn 0.1542 -0.9152 -0.3724
vn 0.3827 0.0000 -0.9239
vn 0.3548 -0.3743 -0.8567
vn 0.2751 0.6952 -0.6641
vn 0.3548 0.3743 -0.8567
vn 0.1542 0.9152 -0.3724
vn 0.2850 0.9152 -0.2850
vn 0.2850 -0.9152 -0.2850
vn 0.5083 -0.6952 -0.5083
vn 0.7071 0.0000 -0.7071
vn 0.5083 0.6952 -0.5083
vn 0.6557 -0.3743 -0.6557
vn 0.6557 0.3743 -0.6557
vn 0.8567 -0.3743 -0.3548
vn 0.6641 -0.6952 -0.2751
vn 0.9239 0.0000 -0.3827
vn 0.3724 0.9152 -0.1542
vn 0.6641 0.6952 -0.2751
vn 0.3724 -0.9152 -0.1542
vn 0.8567 0.3743 -0.3548
vn 0.4031 -0.9152 0.0000
vn 0.9273 -0.3743 0.0000
vn 0.9273 0.3743 0.0000
vn 0.4031 0.9152 0.0000
vn 0.7188 -0.6952 0.0000
vn 1.0000 0.0000 0.0000
vn 0.7188 0.6952 0.0000
vn 0.8567 -0.3743 0.3548
vn 0.8567 0.3743 0.3548
vn 0.3724 0.9152 0.1542
vn 0.3724 -0.9152 0.1542
vn 0.6641 -0.6952 0.2751
vn 0.9239 0.0000 0.3827
vn 0.6641 0.6952 0.2751
vn 0.2850 -0.9152 0.2850
vn 0.6557 -0.3743 0.6557
vn 0.5083 -0.6952 0.5083
vn 0.7071 0.0000 0.7071
vn 0.5083 0.6952 0.5083
vn 0.6557 0.3743 0.6557
vn 0.2850 0.9152 0.2850
vn 0.3827 0.0000 0.9239
vn 0.1542 0.9152 0.3724
vn 0.2751 0.6952 0.6641
vn 0.2751 -0.6952 0.6641
vn 0.1542 -0.9152 0.3724
vn 0.3548 -0.3743 0.8567
vn 0.3548 0.3743 0.8567
vn 0.0000 -0.9152 0.4031
vn 0.0000 -0.3743 0.9273
vn 0.0000 0.6952 0.7188
vn 0.0000 0.3743 0.9273
vn 0.0000 0.9152 0.4031
vn 0.0000 -0.6952 0.7188
vn 0.0000 0.0000 1.0000
vn -0.3548 0.3743 0.8567
vn -0.1542 0.9152 0.3724
vn -0.1542 -0.9152 0.3724
vn -0.3548 -0.3743 0.8567
vn -0.2751 -0.6952 0.6641
vn -0.3827 0.0000 0.9239
vn -0.2751 0.6952 0.6641
vn -0.2850 -0.9152 0.2850
vn -0.6557 -0.3743 0.6557
vn -0.5083 -0.6952 0.5083
vn -0.6557 0.3743 0.6557
vn -0.7071 0.0000 0.7071
vn -0.5083 0.6952 0.5083
vn -0.2850 0.9152 0.2850
vn -0.3724 0.9152 0.1542
vn -0.6641 0.6952 0.2751
vn -0.6641 -0.6952 0.2751
vn -0.3724 -0.9152 0.1542
vn -0.8567 -0.3743 0.3548
vn -0.8567 0.3743 0.3548
vn -0.9239 0.0000 0.3827
s 1
f 6/1/1 14/2/2 7/3/3
f 4/4/4 12/5/5 5/6/6
f 3/7/7 9/8/8 10/9/9
f 1/10/10 44/11/11 8/12/12
f 22/13/13 7/3/3 14/2/2
f 6/1/1 12/5/5 13/14/14
f 3/7/7 11/15/15 4/4/4
f 1/10/10 9/16/8 2/17/16
f 9/8/8 17/18/17 10/9/9
f 8/12/12 44/11/11 15/19/18
f 22/13/13 14/2/2 21/20/19
f 12/5/5 20/21/20 13/14/14
f 10/9/9 18/22/21 11/15/15
f 8/12/12 16/23/22 9/16/8
f 14/2/2 20/21/20 21/20/19
f 11/15/15 19/24/23 12/5/5
f 22/13/13 21/20/19 29/25/24
f 19/24/23 28/26/25 20/21/20
f 17/18/17 26/27/26 18/22/21
f 15/19/18 24/28/27 16/23/22
f 20/21/20 29/25/24 21/20/19
f 19/24/23 26/27/26 27/29/28
f 16/23/22 25/30/29 17/31/17
f 15/19/18 44/11/11 23/32/30
f 23/32/30 31/33/31 24/28/27
f 29/25/24 35/34/32 36/35/33
f 26/27/26 34/36/34 27/29/28
f 25/30/29 31/33/31 32/37/35
f 23/32/30 44/11/11 30/38/36
f 22/13/13 29/25/24 36/35/33
f 27/29/28 35/34/32 28/26/25
f 25/39/29 33/40/37 26/27/26
f 36/35/33 42/41/38 43/42/39
f 34/36/34 40/43/40 41/44/41
f 32/37/35 38/45/42 39/46/43
f 30/38/36 44/11/11 37/47/44
f 22/13/13 36/35/33 43/42/39
f 34/36/34 42/41/38 35/34/32
f 32/48/35 40/43/40 33/40/37
f 30/38/36 38/45/42 31/33/31
f 37/47/44 44/11/11 45/49/45
f 22/13/13 43/42/39 51/50/46
f 41/44/41 50/51/47 42/41/38
f 39/46/43 48/52/48 40/53/40
f 38/45/42 45/49/45 46/54/49
f 43/42/39 50/51/47 51/50/46
f 41/44/41 48/52/48 49/55/50
f 38/45/42 47/56/51 39/46/43
f 50/51/47 56/57/52 57/58/53
f 47/56/51 55/59/54 48/52/48
f 46/54/49 52/60/55 53/61/56
f 50/51/47 58/62/57 51/50/46
f 48/52/48 56/57/52 49/55/50
f 46/54/49 54/63/58 47/56/51
f 45/49/45 44/11/11 52/60/55
f 22/13/13 51/50/46 58/62/57
f 57/58/53 65/64/59 58/62/57
f 55/59/54 63/65/60 56/57/52
f 53/61/56 61/66/61 54/63/58
f 52/60/55 44/11/11 59/67/62
f 22/13/13 58/62/57 65/64/59
f 57/58/53 63/65/60 64/68/63
f 54/63/58 62/69/64 55/59/54
f 52/60/55 60/70/65 53/61/56
f 62/69/64 70/71/66 63/65/60
f 60/70/65 68/72/67 61/66/61
f 59/67/62 44/11/11 66/73/68
f 22/13/13 65/64/59 72/74/69
f 63/65/60 71/75/70 64/68/63
f 62/69/64 68/72/67 69/76/71
f 60/70/65 66/73/68 67/77/72
f 65/64/59 71/75/70 72/74/69
f 22/13/13 72/74/69 79/78/73
f 71/75/70 77/79/74 78/80/75
f 68/72/67 76/81/76 69/76/71
f 66/73/68 74/82/77 67/77/72
f 72/74/69 78/80/75 79/78/73
f 69/76/71 77/79/74 70/71/66
f 67/77/72 75/83/78 68/72/67
f 66/73/68 44/11/11 73/84/79
f 75/83/78 83/85/80 76/81/76
f 74/82/77 80/86/81 81/87/82
f 79/78/73 85/88/83 86/89/84
f 76/81/76 84/90/85 77/79/74
f 74/82/77 82/91/86 75/83/78
f 73/84/79 44/11/11 80/86/81
f 22/13/13 79/78/73 86/89/84
f 78/80/75 84/90/85 85/88/83
f 85/88/83 93/92/87 86/89/84
f 83/85/80 91/93/88 84/90/85
f 82/91/86 88/94/89 89/95/90
f 80/86/81 44/11/11 87/96/91
f 22/13/13 86/89/84 93/92/87
f 84/90/85 92/97/92 85/88/83
f 83/85/80 89/95/90 90/98/93
f 81/87/82 87/96/91 88/94/89
f 88/94/89 96/99/94 89/95/90
f 87/96/91 44/11/11 94/100/95
f 22/13/13 93/92/87 100/101/96
f 92/97/92 98/102/97 99/103/98
f 89/95/90 97/104/99 90/98/93
f 88/94/89 94/100/95 95/105/100
f 92/97/92 100/101/96 93/92/87
f 90/98/93 98/102/97 91/93/88
f 22/13/13 100/101/96 107/106/101
f 99/103/98 105/107/102 106/108/103
f 97/104/99 103/109/104 104/110/105
f 94/100/95 102/111/106 95/105/100
f 100/101/96 106/108/103 107/106/101
f 97/104/99 105/107/102 98/102/97
f 95/105/100 103/112/104 96/99/94
f 94/100/95 44/11/11 101/113/107
f 102/111/106 108/114/108 109/115/109
f 107/106/101 113/116/110 114/117/111
f 104/110/105 112/118/112 105/107/102
f 103/109/104 109/119/109 110/120/113
f 101/113/107 44/11/11 108/114/108
f 22/13/13 107/106/101 114/117/111
f 106/108/103 112/118/112 113/116/110
f 104/110/105 110/120/113 111/121/114
f 113/116/110 7/3/3 114/117/111
f 111/121/114 5/6/6 112/118/112
f 110/120/113 2/122/16 3/7/7
f 108/114/108 44/11/11 1/10/10
f 22/13/13 114/117/111 7/3/3
f 112/118/112 6/1/1 113/116/110
f 111/121/114 3/7/7 4/4/4
f 109/115/109 1/10/10 2/17/16
f 6/1/1 13/14/14 14/2/2
f 4/4/4 11/15/15 12/5/5
f 3/7/7 2/122/16 9/8/8
f 6/1/1 5/6/6 12/5/5
f 3/7/7 10/9/9 11/15/15
f 1/10/10 8/12/12 9/16/8
f 9/8/8 16/123/22 17/18/17
f 12/5/5 19/24/23 20/21/20
f 10/9/9 17/18/17 18/22/21
f 8/12/12 15/19/18 16/23/22
f 14/2/2 13/14/14 20/21/20
f 11/15/15 18/22/21 19/24/23
f 19/24/23 27/29/28 28/26/25
f 17/18/17 25/39/29 26/27/26
f 15/19/18 23/32/30 24/28/27
f 20/21/20 28/26/25 29/25/24
f 19/24/23 18/22/21 26/27/26
f 16/23/22 24/28/27 25/30/29
f 23/32/30 30/38/36 31/33/31
f 29/25/24 28/26/25 35/34/32
f 26/27/26 33/40/37 34/36/34
f 25/30/29 24/28/27 31/33/31
f 27/29/28 34/36/34 35/34/32
f 25/39/29 32/48/35 33/40/37
f 36/35/33 35/34/32 42/41/38
f 34/36/34 33/40/37 40/43/40
f 32/37/35 31/33/31 38/45/42
f 34/36/34 41/44/41 42/41/38
f 32/48/35 39/124/43 40/43/40
f 30/38/36 37/47/44 38/45/42
f 41/44/41 49/55/50 50/51/47
f 39/46/43 47/56/51 48/52/48
f 38/45/42 37/47/44 45/49/45
f 43/42/39 42/41/38 50/51/47
f 41/44/41 40/53/40 48/52/48
f 38/45/42 46/54/49 47/56/51
f 50/51/47 49/55/50 56/57/52
f 47/56/51 54/63/58 55/59/54
f 46/54/49 45/49/45 52/60/55
f 50/51/47 57/58/53 58/62/57
f 48/52/48 55/59/54 56/57/52
f 46/54/49 53/61/56 54/63/58
f 57/58/53 64/68/63 65/64/59
f 55/59/54 62/69/64 63/65/60
f 53/61/56 60/70/65 61/66/61
f 57/58/53 56/57/52 63/65/60
f 54/63/58 61/66/61 62/69/64
f 52/60/55 59/67/62 60/70/65
f 62/69/64 69/76/71 70/71/66
f 60/70/65 67/77/72 68/72/67
f 63/65/60 70/71/66 71/75/70
f 62/69/64 61/66/61 68/72/67
f 60/70/65 59/67/62 66/73/68
f 65/64/59 64/68/63 71/75/70
f 71/75/70 70/71/66 77/79/74
f 68/72/67 75/83/78 76/81/76
f 66/73/68 73/84/79 74/82/77
f 72/74/69 71/75/70 78/80/75
f 69/76/71 76/81/76 77/79/74
f 67/77/72 74/82/77 75/83/78
f 75/83/78 82/91/86 83/85/80
f 74/82/77 73/84/79 80/86/81
f 79/78/73 78/80/75 85/88/83
f 76/81/76 83/85/80 84/90/85
f 74/82/77 81/87/82 82/91/86
f 78/80/75 77/79/74 84/90/85
f 85/88/83 92/97/92 93/92/87
f 83/85/80 90/98/93 91/93/88
f 82/91/86 81/87/82 88/94/89
f 84/90/85 91/93/88 92/97/92
f 83/85/80 82/91/86 89/95/90
f 81/87/82 80/86/81 87/96/91
f 88/94/89 95/105/100 96/99/94
f 92/97/92 91/93/88 98/102/97
f 89/95/90 96/125/94 97/104/99
f 88/94/89 87/96/91 94/100/95
f 92/97/92 99/103/98 100/101/96
f 90/98/93 97/104/99 98/102/97
f 99/103/98 98/102/97 105/107/102
f 97/104/99 96/125/94 103/109/104
f 94/100/95 101/113/107 102/111/106
f 100/101/96 99/103/98 106/108/103
f 97/104/99 104/110/105 105/107/102
f 95/105/100 102/111/106 103/112/104
f 102/111/106 101/113/107 108/114/108
f 107/106/101 106/108/103 113/116/110
f 104/110/105 111/121/114 112/118/112
f 103/109/104 102/126/106 109/119/109
f 106/108/103 105/107/102 112/118/112
f 104/110/105 103/109/104 110/120/113
f 113/116/110 6/1/1 7/3/3
f 111/121/114 4/4/4 5/6/6
f 110/120/113 109/119/109 2/122/16
f 112/118/112 5/6/6 6/1/1
f 111/121/114 110/120/113 3/7/7
f 109/115/109 108/114/108 1/10/10
