# Blender v2.77 (sub 0) OBJ File: ''
# www.blender.org
o Cube
v 0.755543 0.417443 -0.755543
v 0.755543 0.417443 0.755543
v -0.755543 0.417443 0.755543
v -0.755543 0.417443 -0.755543
v 0.755543 0.481835 -0.755543
v 0.755542 0.481835 0.755543
v -0.755543 0.481835 0.755543
v -0.755543 0.481835 -0.755543
v 0.755543 0.326693 -0.755543
v 0.755543 0.326693 0.755543
v -0.755543 0.326693 0.755543
v -0.755543 0.326693 -0.755543
v 0.755543 0.391084 -0.755543
v 0.755542 0.391084 0.755543
v -0.755543 0.391084 0.755543
v -0.755543 0.391084 -0.755543
v -0.605715 0.006041 -0.755543
v -0.605715 0.006041 0.755543
v -0.668826 0.006041 0.755543
v -0.668825 0.006041 -0.755543
v -0.605715 0.324534 -0.755543
v -0.605716 0.324534 0.755543
v -0.668826 0.324534 0.755543
v -0.668826 0.324534 -0.755543
v 0.693819 0.006041 -0.755543
v 0.693819 0.006041 0.755543
v 0.630708 0.006041 0.755543
v 0.630708 0.006041 -0.755543
v 0.693819 0.324534 -0.755543
v 0.693818 0.324534 0.755543
v 0.630708 0.324534 0.755543
v 0.630708 0.324534 -0.755543
vt 0.7475 0.4523
vt 0.3738 0.9047
vt 0.3738 0.4523
vt 0.7475 0.0000
vt 0.3738 0.4523
vt 0.3738 0.0000
vt 0.9051 0.4523
vt 0.9210 0.0000
vt 0.9210 0.4523
vt 0.9529 0.9047
vt 0.9688 0.4523
vt 0.9688 0.9047
vt 0.9369 0.4523
vt 0.9529 0.0000
vt 0.9529 0.4523
vt 0.9051 0.9047
vt 0.3738 0.0000
vt 0.0000 0.4523
vt 0.0000 0.0000
vt 0.3738 0.4523
vt 0.0000 0.9047
vt 0.0000 0.4523
vt 0.9210 0.4523
vt 0.9369 0.0000
vt 0.9369 0.4523
vt 0.9369 0.9047
vt 0.9529 0.4523
vt 0.9529 0.9047
vt 0.9529 0.4523
vt 0.9688 0.0000
vt 0.9688 0.4523
vt 0.9210 0.9047
vt 1.0000 0.0000
vt 0.9844 0.4523
vt 0.9844 0.0000
vt 0.9844 0.4523
vt 0.9688 0.0000
vt 0.9844 0.0000
vt 0.7475 0.4523
vt 0.8263 0.0000
vt 0.8263 0.4523
vt 0.0468 0.9047
vt 0.0624 1.0000
vt 0.0468 1.0000
vt 0.9051 0.9047
vt 0.8263 0.4523
vt 0.9051 0.4523
vt 0.0000 0.9047
vt 0.0156 1.0000
vt 0.0000 1.0000
vt 1.0000 0.4523
vt 0.9844 0.9047
vt 0.9844 0.4523
vt 0.9844 0.9047
vt 0.9688 0.4523
vt 0.9844 0.4523
vt 0.8263 0.4523
vt 0.9051 0.0000
vt 0.9051 0.4523
vt 0.0312 0.9047
vt 0.0468 1.0000
vt 0.0312 1.0000
vt 0.7475 0.9047
vt 0.8263 0.4523
vt 0.8263 0.9047
vt 0.0156 0.9047
vt 0.0312 1.0000
vt 0.0156 1.0000
vt 0.7475 0.9047
vt 0.7475 0.4523
vt 0.9051 0.0000
vt 0.9529 0.4523
vt 0.9369 0.0000
vt 0.9210 0.9047
vt 0.3738 0.4523
vt 0.3738 0.9047
vt 0.9210 0.0000
vt 0.9369 0.4523
vt 0.9529 0.0000
vt 0.9369 0.9047
vt 1.0000 0.4523
vt 0.9688 0.4523
vt 0.7475 0.0000
vt 0.0624 0.9047
vt 0.8263 0.9047
vt 0.0156 0.9047
vt 1.0000 0.9047
vt 0.9688 0.9047
vt 0.8263 0.0000
vt 0.0468 0.9047
vt 0.7475 0.4523
vt 0.0312 0.9047
vn 0.0000 -1.0000 0.0000
vn 0.0000 1.0000 0.0000
vn 1.0000 -0.0000 0.0000
vn -0.0000 -0.0000 1.0000
vn -1.0000 -0.0000 -0.0000
vn 0.0000 0.0000 -1.0000
s off
f 2/1/1 4/2/1 1/3/1
f 5/4/2 7/5/2 6/6/2
f 5/7/3 2/8/3 1/9/3
f 6/10/4 3/11/4 2/12/4
f 7/13/5 4/14/5 3/15/5
f 1/9/6 8/16/6 5/7/6
f 10/17/1 12/18/1 9/19/1
f 13/20/2 15/21/2 14/22/2
f 13/23/3 10/24/3 9/25/3
f 14/26/4 11/27/4 10/28/4
f 15/29/5 12/30/5 11/31/5
f 9/25/6 16/32/6 13/23/6
f 17/33/1 19/34/1 20/35/1
f 21/36/2 23/37/2 22/38/2
f 21/39/3 18/40/3 17/41/3
f 22/42/4 19/43/4 18/44/4
f 19/45/5 24/46/5 20/47/5
f 17/48/6 24/49/6 21/50/6
f 25/51/1 27/52/1 28/53/1
f 29/54/2 31/55/2 30/56/2
f 29/57/3 26/58/3 25/59/3
f 30/60/4 27/61/4 26/62/4
f 31/63/5 28/64/5 27/65/5
f 25/66/6 32/67/6 29/68/6
f 2/1/1 3/69/1 4/2/1
f 5/4/2 8/70/2 7/5/2
f 5/7/3 6/71/3 2/8/3
f 6/10/4 7/72/4 3/11/4
f 7/13/5 8/73/5 4/14/5
f 1/9/6 4/74/6 8/16/6
f 10/17/1 11/75/1 12/18/1
f 13/20/2 16/76/2 15/21/2
f 13/23/3 14/77/3 10/24/3
f 14/26/4 15/78/4 11/27/4
f 15/29/5 16/79/5 12/30/5
f 9/25/6 12/80/6 16/32/6
f 17/33/1 18/81/1 19/34/1
f 21/36/2 24/82/2 23/37/2
f 21/39/3 22/83/3 18/40/3
f 22/42/4 23/84/4 19/43/4
f 19/45/5 23/85/5 24/46/5
f 17/48/6 20/86/6 24/49/6
f 25/51/1 26/87/1 27/52/1
f 29/54/2 32/88/2 31/55/2
f 29/57/3 30/89/3 26/58/3
f 30/60/4 31/90/4 27/61/4
f 31/63/5 32/91/5 28/64/5
f 25/66/6 28/92/6 32/67/6
