# Blender v2.77 (sub 0) OBJ File: ''
# www.blender.org
o Cylinder
v 0.000000 -1.000000 -1.000000
v 0.000000 1.000000 -1.000000
v 0.195090 -1.000000 -0.980785
v 0.195090 1.000000 -0.980785
v 0.382683 -1.000000 -0.923880
v 0.382683 1.000000 -0.923880
v 0.555570 -1.000000 -0.831470
v 0.555570 1.000000 -0.831470
v 0.707107 -1.000000 -0.707107
v 0.707107 1.000000 -0.707107
v 0.831470 -1.000000 -0.555570
v 0.831470 1.000000 -0.555570
v 0.923880 -1.000000 -0.382683
v 0.923880 1.000000 -0.382683
v 0.980785 -1.000000 -0.195090
v 0.980785 1.000000 -0.195090
v 1.000000 -1.000000 -0.000000
v 1.000000 1.000000 -0.000000
v 0.980785 -1.000000 0.195090
v 0.980785 1.000000 0.195090
v 0.923880 -1.000000 0.382683
v 0.923880 1.000000 0.382683
v 0.831470 -1.000000 0.555570
v 0.831470 1.000000 0.555570
v 0.707107 -1.000000 0.707107
v 0.707107 1.000000 0.707107
v 0.555570 -1.000000 0.831470
v 0.555570 1.000000 0.831470
v 0.382683 -1.000000 0.923880
v 0.382683 1.000000 0.923880
v 0.195090 -1.000000 0.980785
v 0.195090 1.000000 0.980785
v -0.000000 -1.000000 1.000000
v -0.000000 1.000000 1.000000
v -0.195091 -1.000000 0.980785
v -0.195091 1.000000 0.980785
v -0.382684 -1.000000 0.923879
v -0.382684 1.000000 0.923879
v -0.555571 -1.000000 0.831469
v -0.555571 1.000000 0.831469
v -0.707107 -1.000000 0.707106
v -0.707107 1.000000 0.707106
v -0.831470 -1.000000 0.555570
v -0.831470 1.000000 0.555570
v -0.923880 -1.000000 0.382683
v -0.923880 1.000000 0.382683
v -0.980785 -1.000000 0.195089
v -0.980785 1.000000 0.195089
v -1.000000 -1.000000 -0.000001
v -1.000000 1.000000 -0.000001
v -0.980785 -1.000000 -0.195091
v -0.980785 1.000000 -0.195091
v -0.923879 -1.000000 -0.382684
v -0.923879 1.000000 -0.382684
v -0.831469 -1.000000 -0.555571
v -0.831469 1.000000 -0.555571
v -0.707106 -1.000000 -0.707108
v -0.707106 1.000000 -0.707108
v -0.555569 -1.000000 -0.831470
v -0.555569 1.000000 -0.831470
v -0.382682 -1.000000 -0.923880
v -0.382682 1.000000 -0.923880
v -0.195089 -1.000000 -0.980786
v -0.195089 1.000000 -0.980786
vt 0.2222 0.0843
vt 0.0096 0.4025
vt 0.4025 0.9904
vt 0.5975 0.0096
vt 0.0096 0.4025
vt 0.9904 0.5975
vt 0.5000 1.0000
vt 0.5975 0.9904
vt 0.6913 0.9619
vt 0.7778 0.9157
vt 0.8536 0.8536
vt 0.9157 0.7778
vt 0.9619 0.6913
vt 0.9904 0.5975
vt 1.0000 0.5000
vt 0.9904 0.4025
vt 0.9619 0.3087
vt 0.9157 0.2222
vt 0.8536 0.1464
vt 0.5975 0.0096
vt 0.7778 0.0843
vt 0.6913 0.0381
vt 0.5000 0.0000
vt 0.4025 0.0096
vt 0.3087 0.0381
vt 0.1464 0.1464
vt 0.0843 0.2222
vt 0.0381 0.3087
vt 0.0000 0.5000
vt 0.0096 0.5975
vt 0.0381 0.6913
vt 0.0843 0.7778
vt 0.1464 0.8536
vt 0.2222 0.9157
vt 0.3087 0.9619
vt 0.4025 0.9904
vt 0.5000 1.0000
vt 0.5975 0.9904
vt 0.6913 0.9619
vt 0.7778 0.9157
vt 0.8536 0.8536
vt 0.9157 0.7778
vt 0.9619 0.6913
vt 1.0000 0.5000
vt 0.9904 0.4025
vt 0.9619 0.3087
vt 0.9157 0.2222
vt 0.8536 0.1464
vt 0.7778 0.0843
vt 0.6913 0.0381
vt 0.5000 0.0000
vt 0.4025 0.0096
vt 0.3087 0.0381
vt 0.2222 0.0843
vt 0.1464 0.1464
vt 0.0843 0.2222
vt 0.0381 0.3087
vt 0.0000 0.5000
vt 0.0096 0.5975
vt 0.0381 0.6913
vt 0.0843 0.7778
vt 0.1464 0.8536
vt 0.2222 0.9157
vt 0.3087 0.9619
vt 0.1563 0.9946
vt 0.1250 0.0001
vt 0.1563 0.0001
vt 0.1250 0.9946
vt 0.0938 0.0001
vt 0.0938 0.9946
vt 0.0625 0.0001
vt 0.0625 0.9946
vt 0.0313 0.0001
vt 0.0313 0.9946
vt 0.0001 0.0001
vt 0.9999 0.9946
vt 0.9687 0.0001
vt 0.9999 0.0001
vt 0.9687 0.9946
vt 0.9375 0.0001
vt 0.9374 0.9946
vt 0.9062 0.0001
vt 0.9062 0.9946
vt 0.8750 0.0001
vt 0.8750 0.9946
vt 0.8437 0.0001
vt 0.8437 0.9946
vt 0.8125 0.0001
vt 0.8125 0.9946
vt 0.7812 0.0001
vt 0.7812 0.9946
vt 0.7500 0.0001
vt 0.7500 0.9946
vt 0.7187 0.0001
vt 0.7187 0.9946
vt 0.6875 0.0001
vt 0.6875 0.9946
vt 0.6562 0.0001
vt 0.6562 0.9946
vt 0.6250 0.0001
vt 0.6250 0.9946
vt 0.5937 0.0001
vt 0.5937 0.9946
vt 0.5625 0.0001
vt 0.5625 0.9946
vt 0.5312 0.0001
vt 0.5312 0.9946
vt 0.5000 0.0001
vt 0.5000 0.9946
vt 0.4688 0.0001
vt 0.4688 0.9946
vt 0.4375 0.0001
vt 0.4375 0.9946
vt 0.4063 0.0001
vt 0.4063 0.9946
vt 0.3750 0.0001
vt 0.3750 0.9946
vt 0.3438 0.0001
vt 0.3438 0.9946
vt 0.3125 0.0001
vt 0.3125 0.9946
vt 0.2813 0.0001
vt 0.2813 0.9946
vt 0.2500 0.0001
vt 0.2500 0.9946
vt 0.2188 0.0001
vt 0.2188 0.9946
vt 0.1875 0.0001
vt 0.1875 0.9946
vt 0.0001 0.9946
vn 0.0000 1.0000 0.0000
vn 0.0000 -1.0000 0.0000
vn 0.0000 0.6857 -0.7279
vn 0.1420 -0.6857 -0.7139
vn 0.0000 -0.6857 -0.7279
vn 0.1420 0.6857 -0.7139
vn 0.2785 -0.6857 -0.6725
vn 0.2785 0.6857 -0.6725
vn 0.4044 -0.6857 -0.6052
vn 0.4044 0.6857 -0.6052
vn 0.5147 -0.6857 -0.5147
vn 0.5147 0.6857 -0.5147
vn 0.6052 -0.6857 -0.4044
vn 0.6052 0.6857 -0.4044
vn 0.6725 -0.6857 -0.2785
vn 0.6725 0.6857 -0.2785
vn 0.7139 -0.6857 -0.1420
vn 0.7139 0.6857 -0.1420
vn 0.7279 -0.6857 0.0000
vn 0.7279 0.6857 0.0000
vn 0.7139 -0.6857 0.1420
vn 0.7139 0.6857 0.1420
vn 0.6725 -0.6857 0.2785
vn 0.6725 0.6857 0.2785
vn 0.6052 -0.6857 0.4044
vn 0.6052 0.6857 0.4044
vn 0.5147 -0.6857 0.5147
vn 0.5147 0.6857 0.5147
vn 0.4044 -0.6857 0.6052
vn 0.4044 0.6857 0.6052
vn 0.2785 -0.6857 0.6725
vn 0.2785 0.6857 0.6725
vn 0.1420 -0.6857 0.7139
vn 0.1420 0.6857 0.7139
vn 0.0000 -0.6857 0.7279
vn 0.0000 0.6857 0.7279
vn -0.1420 -0.6857 0.7139
vn -0.1420 0.6857 0.7139
vn -0.2785 -0.6857 0.6725
vn -0.2785 0.6857 0.6725
vn -0.4044 -0.6857 0.6052
vn -0.4044 0.6857 0.6052
vn -0.5147 -0.6857 0.5147
vn -0.5147 0.6857 0.5147
vn -0.6052 -0.6857 0.4044
vn -0.6052 0.6857 0.4044
vn -0.6725 -0.6857 0.2785
vn -0.6725 0.6857 0.2785
vn -0.7139 -0.6857 0.1420
vn -0.7139 0.6857 0.1420
vn -0.7279 -0.6857 0.0000
vn -0.7279 0.6857 0.0000
vn -0.7139 -0.6857 -0.1420
vn -0.7139 0.6857 -0.1420
vn -0.6725 -0.6857 -0.2785
vn -0.6725 0.6857 -0.2785
vn -0.6052 -0.6857 -0.4044
vn -0.6052 0.6857 -0.4044
vn -0.5147 -0.6857 -0.5147
vn -0.5147 0.6857 -0.5147
vn -0.4044 -0.6857 -0.6052
vn -0.4044 0.6857 -0.6052
vn -0.2785 -0.6857 -0.6725
vn -0.2785 0.6857 -0.6725
vn -0.1420 -0.6857 -0.7139
vn -0.1420 0.6857 -0.7139
s off
f 30/1/1 22/2/1 6/3/1
f 31/4/2 47/5/2 15/6/2
f 6/3/1 4/7/1 2/8/1
f 2/8/1 64/9/1 6/3/1
f 62/10/1 60/11/1 58/12/1
f 58/12/1 56/13/1 54/14/1
f 54/14/1 52/15/1 50/16/1
f 50/16/1 48/17/1 54/14/1
f 46/18/1 44/19/1 38/20/1
f 42/21/1 40/22/1 38/20/1
f 38/20/1 36/23/1 34/24/1
f 34/24/1 32/25/1 38/20/1
f 30/1/1 28/26/1 26/27/1
f 26/27/1 24/28/1 22/2/1
f 22/2/1 20/29/1 18/30/1
f 18/30/1 16/31/1 14/32/1
f 14/32/1 12/33/1 10/34/1
f 10/34/1 8/35/1 6/3/1
f 6/3/1 64/9/1 62/10/1
f 62/10/1 58/12/1 6/3/1
f 54/14/1 48/17/1 46/18/1
f 44/19/1 42/21/1 38/20/1
f 38/20/1 32/25/1 30/1/1
f 30/1/1 26/27/1 22/2/1
f 22/2/1 18/30/1 14/32/1
f 14/32/1 10/34/1 22/2/1
f 6/3/1 58/12/1 54/14/1
f 54/14/1 46/18/1 38/20/1
f 38/20/1 30/1/1 6/3/1
f 22/2/1 10/34/1 6/3/1
f 6/3/1 54/14/1 38/20/1
f 63/36/2 1/37/2 3/38/2
f 3/38/2 5/39/2 7/40/2
f 7/40/2 9/41/2 11/42/2
f 11/42/2 13/43/2 7/40/2
f 15/6/2 17/44/2 19/45/2
f 19/45/2 21/46/2 15/6/2
f 23/47/2 25/48/2 31/4/2
f 27/49/2 29/50/2 31/4/2
f 31/4/2 33/51/2 35/52/2
f 35/52/2 37/53/2 31/4/2
f 39/54/2 41/55/2 43/56/2
f 43/56/2 45/57/2 47/5/2
f 47/5/2 49/58/2 51/59/2
f 51/59/2 53/60/2 55/61/2
f 55/61/2 57/62/2 63/36/2
f 59/63/2 61/64/2 63/36/2
f 63/36/2 3/38/2 15/6/2
f 7/40/2 13/43/2 15/6/2
f 15/6/2 21/46/2 23/47/2
f 25/48/2 27/49/2 31/4/2
f 31/4/2 37/53/2 39/54/2
f 39/54/2 43/56/2 47/5/2
f 47/5/2 51/59/2 63/36/2
f 57/62/2 59/63/2 63/36/2
f 3/38/2 7/40/2 15/6/2
f 15/6/2 23/47/2 31/4/2
f 31/4/2 39/54/2 47/5/2
f 51/59/2 55/61/2 63/36/2
f 63/36/2 15/6/2 47/5/2
s 1
f 2/65/3 3/66/4 1/67/5
f 4/68/6 5/69/7 3/66/4
f 6/70/8 7/71/9 5/69/7
f 8/72/10 9/73/11 7/71/9
f 10/74/12 11/75/13 9/73/11
f 12/76/14 13/77/15 11/78/13
f 14/79/16 15/80/17 13/77/15
f 16/81/18 17/82/19 15/80/17
f 18/83/20 19/84/21 17/82/19
f 20/85/22 21/86/23 19/84/21
f 22/87/24 23/88/25 21/86/23
f 24/89/26 25/90/27 23/88/25
f 26/91/28 27/92/29 25/90/27
f 28/93/30 29/94/31 27/92/29
f 30/95/32 31/96/33 29/94/31
f 32/97/34 33/98/35 31/96/33
f 34/99/36 35/100/37 33/98/35
f 36/101/38 37/102/39 35/100/37
f 38/103/40 39/104/41 37/102/39
f 40/105/42 41/106/43 39/104/41
f 42/107/44 43/108/45 41/106/43
f 44/109/46 45/110/47 43/108/45
f 46/111/48 47/112/49 45/110/47
f 48/113/50 49/114/51 47/112/49
f 50/115/52 51/116/53 49/114/51
f 52/117/54 53/118/55 51/116/53
f 54/119/56 55/120/57 53/118/55
f 56/121/58 57/122/59 55/120/57
f 58/123/60 59/124/61 57/122/59
f 60/125/62 61/126/63 59/124/61
f 62/127/64 63/128/65 61/126/63
f 64/129/66 1/67/5 63/128/65
f 2/65/3 4/68/6 3/66/4
f 4/68/6 6/70/8 5/69/7
f 6/70/8 8/72/10 7/71/9
f 8/72/10 10/74/12 9/73/11
f 10/74/12 12/130/14 11/75/13
f 12/76/14 14/79/16 13/77/15
f 14/79/16 16/81/18 15/80/17
f 16/81/18 18/83/20 17/82/19
f 18/83/20 20/85/22 19/84/21
f 20/85/22 22/87/24 21/86/23
f 22/87/24 24/89/26 23/88/25
f 24/89/26 26/91/28 25/90/27
f 26/91/28 28/93/30 27/92/29
f 28/93/30 30/95/32 29/94/31
f 30/95/32 32/97/34 31/96/33
f 32/97/34 34/99/36 33/98/35
f 34/99/36 36/101/38 35/100/37
f 36/101/38 38/103/40 37/102/39
f 38/103/40 40/105/42 39/104/41
f 40/105/42 42/107/44 41/106/43
f 42/107/44 44/109/46 43/108/45
f 44/109/46 46/111/48 45/110/47
f 46/111/48 48/113/50 47/112/49
f 48/113/50 50/115/52 49/114/51
f 50/115/52 52/117/54 51/116/53
f 52/117/54 54/119/56 53/118/55
f 54/119/56 56/121/58 55/120/57
f 56/121/58 58/123/60 57/122/59
f 58/123/60 60/125/62 59/124/61
f 60/125/62 62/127/64 61/126/63
f 62/127/64 64/129/66 63/128/65
f 64/129/66 2/65/3 1/67/5
