# Blender v2.77 (sub 0) OBJ File: ''
# www.blender.org
o Sphere_Sphere.002
v -0.382683 0.923880 0.000000
v -0.707107 0.707107 0.000000
v -0.923880 0.382683 0.000000
v -1.000000 -0.000000 0.000000
v -0.923880 -0.382684 0.000000
v -0.707107 -0.707107 0.000000
v -0.382683 -0.923880 0.000000
v -0.331414 0.923880 -0.191342
v -0.612372 0.707107 -0.353553
v -0.800103 0.382683 -0.461940
v -0.866025 -0.000000 -0.500000
v -0.800103 -0.382684 -0.461940
v -0.612372 -0.707107 -0.353553
v -0.331414 -0.923880 -0.191342
v -0.000000 -1.000000 0.000000
v -0.191342 0.923880 -0.331413
v -0.353553 0.707107 -0.612372
v -0.461940 0.382683 -0.800103
v -0.500000 -0.000000 -0.866025
v -0.461940 -0.382684 -0.800103
v -0.353553 -0.707107 -0.612372
v -0.191342 -0.923880 -0.331413
v -0.000000 0.923880 -0.382683
v -0.000000 0.707107 -0.707107
v -0.000000 0.382683 -0.923879
v -0.000000 -0.000000 -1.000000
v -0.000000 -0.382684 -0.923879
v -0.000000 -0.707107 -0.707107
v -0.000000 -0.923880 -0.382683
v 0.191341 0.923880 -0.331413
v 0.353553 0.707107 -0.612372
v 0.461940 0.382683 -0.800103
v 0.500000 -0.000000 -0.866025
v 0.461940 -0.382684 -0.800103
v 0.353553 -0.707107 -0.612372
v 0.191342 -0.923880 -0.331413
v -0.000000 1.000000 0.000000
v 0.331413 0.923880 -0.191342
v 0.612372 0.707107 -0.353553
v 0.800103 0.382683 -0.461940
v 0.866025 -0.000000 -0.500000
v 0.800103 -0.382684 -0.461940
v 0.612372 -0.707107 -0.353553
v 0.331413 -0.923880 -0.191342
v 0.382683 0.923880 0.000000
v 0.707106 0.707107 0.000000
v 0.923879 0.382683 0.000000
v 1.000000 -0.000000 0.000000
v 0.923879 -0.382684 0.000000
v 0.707106 -0.707107 0.000000
v 0.382683 -0.923880 0.000000
v 0.331413 0.923880 0.191342
v 0.612372 0.707107 0.353553
v 0.800103 0.382683 0.461940
v 0.866025 -0.000000 0.500000
v 0.800103 -0.382684 0.461940
v 0.612372 -0.707107 0.353553
v 0.331413 -0.923880 0.191342
v 0.191341 0.923880 0.331413
v 0.353553 0.707107 0.612372
v 0.461940 0.382683 0.800103
v 0.500000 -0.000000 0.866025
v 0.461940 -0.382684 0.800103
v 0.353553 -0.707107 0.612372
v 0.191341 -0.923880 0.331413
v -0.000000 0.923880 0.382683
v -0.000000 0.707107 0.707107
v -0.000000 0.382683 0.923879
v -0.000000 -0.000000 1.000000
v -0.000000 -0.382684 0.923879
v -0.000000 -0.707107 0.707107
v -0.000000 -0.923880 0.382683
v -0.191342 0.923880 0.331413
v -0.353554 0.707107 0.612372
v -0.461940 0.382683 0.800103
v -0.500000 -0.000000 0.866025
v -0.461940 -0.382684 0.800103
v -0.353554 -0.707107 0.612372
v -0.191342 -0.923880 0.331413
v -0.331414 0.923880 0.191342
v -0.612373 0.707107 0.353553
v -0.800103 0.382683 0.461940
v -0.866025 -0.000000 0.500000
v -0.800103 -0.382684 0.461940
v -0.612373 -0.707107 0.353553
v -0.331414 -0.923880 0.191342
vt 0.0000 0.0000
vt 1.0000 0.0000
vt 1.0000 1.0000
vt 0.0000 1.0000
vt 0.0000 0.0000
vt 1.0000 0.0000
vt 1.0000 1.0000
vt 0.0000 1.0000
vt 0.0000 0.0000
vt 1.0000 0.0000
vt 1.0000 1.0000
vt 0.0000 1.0000
vt 0.0000 0.0000
vt 1.0000 0.0000
vt 1.0000 1.0000
vt 0.0000 0.0000
vt 1.0000 0.0000
vt 1.0000 1.0000
vt 0.0000 0.0000
vt 1.0000 0.0000
vt 1.0000 1.0000
vt 0.0000 1.0000
vt 0.0000 0.0000
vt 1.0000 0.0000
vt 1.0000 1.0000
vt 0.0000 1.0000
vt 0.0000 0.0000
vt 1.0000 0.0000
vt 0.0000 1.0000
vt 1.0000 0.0000
vt 1.0000 1.0000
vt 0.0000 0.0000
vt 1.0000 0.0000
vt 1.0000 1.0000
vt 0.0000 1.0000
vt 0.0000 0.0000
vt 1.0000 0.0000
vt 1.0000 1.0000
vt 0.0000 1.0000
vt 0.0000 0.0000
vt 1.0000 0.0000
vt 1.0000 1.0000
vt 0.0000 1.0000
vt 0.0000 0.0000
vt 1.0000 0.0000
vt 1.0000 1.0000
vt 0.0000 1.0000
vt 0.0000 0.0000
vt 1.0000 0.0000
vt 1.0000 1.0000
vt 0.0000 1.0000
vt 0.0000 0.0000
vt 1.0000 0.0000
vt 1.0000 1.0000
vt 0.0000 1.0000
vt 0.0000 0.0000
vt 0.0000 0.0000
vt 1.0000 0.0000
vt 1.0000 1.0000
vt 0.0000 1.0000
vt 0.0000 0.0000
vt 1.0000 0.0000
vt 1.0000 1.0000
vt 0.0000 1.0000
vt 0.0000 0.0000
vt 1.0000 0.0000
vt 1.0000 1.0000
vt 0.0000 1.0000
vt 0.0000 0.0000
vt 1.0000 0.0000
vt 1.0000 1.0000
vt 0.0000 1.0000
vt 0.0000 0.0000
vt 1.0000 0.0000
vt 1.0000 1.0000
vt 0.0000 1.0000
vt 0.0000 0.0000
vt 1.0000 0.0000
vt 1.0000 1.0000
vt 0.0000 0.0000
vt 1.0000 0.0000
vt 1.0000 1.0000
vt 0.0000 1.0000
vt 0.0000 0.0000
vt 1.0000 0.0000
vt 1.0000 1.0000
vt 0.0000 1.0000
vt 0.0000 0.0000
vt 1.0000 0.0000
vt 1.0000 1.0000
vt 0.0000 1.0000
vt 0.0000 0.0000
vt 1.0000 0.0000
vt 1.0000 1.0000
vt 0.0000 1.0000
vt 0.0000 0.0000
vt 1.0000 1.0000
vt 1.0000 0.0000
vt 1.0000 1.0000
vt 0.0000 0.0000
vt 1.0000 0.0000
vt 1.0000 1.0000
vt 0.0000 1.0000
vt 0.0000 0.0000
vt 1.0000 0.0000
vt 1.0000 1.0000
vt 0.0000 1.0000
vt 0.0000 0.0000
vt 1.0000 0.0000
vt 0.0000 1.0000
vt 0.0000 0.0000
vt 1.0000 0.0000
vt 1.0000 1.0000
vt 0.0000 1.0000
vt 0.0000 0.0000
vt 1.0000 1.0000
vt 1.0000 0.0000
vt 1.0000 1.0000
vt 0.0000 0.0000
vt 1.0000 0.0000
vt 1.0000 1.0000
vt 0.0000 1.0000
vt 0.0000 0.0000
vt 1.0000 0.0000
vt 1.0000 1.0000
vt 0.0000 1.0000
vt 0.0000 0.0000
vt 1.0000 0.0000
vt 0.0000 1.0000
vt 0.0000 0.0000
vt 1.0000 0.0000
vt 1.0000 1.0000
vt 0.0000 1.0000
vt 0.0000 0.0000
vt 1.0000 0.0000
vt 1.0000 1.0000
vt 0.0000 1.0000
vt 1.0000 0.0000
vt 1.0000 1.0000
vt 0.0000 0.0000
vt 1.0000 0.0000
vt 1.0000 1.0000
vt 0.0000 1.0000
vt 0.0000 0.0000
vt 1.0000 0.0000
vt 1.0000 1.0000
vt 0.0000 1.0000
vt 0.0000 0.0000
vt 1.0000 0.0000
vt 1.0000 1.0000
vt 0.0000 1.0000
vt 0.0000 0.0000
vt 1.0000 0.0000
vt 1.0000 1.0000
vt 0.0000 1.0000
vt 0.0000 0.0000
vt 1.0000 0.0000
vt 1.0000 1.0000
vt 0.0000 1.0000
vt 0.0000 0.0000
vt 1.0000 0.0000
vt 1.0000 1.0000
vt 0.0000 1.0000
vt 0.0000 0.0000
vt 0.0000 0.0000
vt 1.0000 0.0000
vt 1.0000 1.0000
vt 0.0000 1.0000
vt 0.0000 0.0000
vt 1.0000 0.0000
vt 1.0000 1.0000
vt 0.0000 1.0000
vt 0.0000 0.0000
vt 1.0000 0.0000
vt 1.0000 1.0000
vt 0.0000 1.0000
vt 0.0000 0.0000
vt 1.0000 0.0000
vt 1.0000 1.0000
vt 0.0000 1.0000
vt 0.0000 0.0000
vt 1.0000 0.0000
vt 1.0000 1.0000
vt 0.0000 0.0000
vt 1.0000 0.0000
vt 1.0000 1.0000
vt 0.0000 1.0000
vt 0.0000 0.0000
vt 1.0000 0.0000
vt 1.0000 1.0000
vt 0.0000 1.0000
vt 0.0000 0.0000
vt 1.0000 0.0000
vt 1.0000 1.0000
vt 0.0000 1.0000
vt 0.0000 0.0000
vt 1.0000 0.0000
vt 1.0000 1.0000
vt 0.0000 1.0000
vt 0.0000 0.0000
vt 1.0000 0.0000
vt 1.0000 1.0000
vt 0.0000 1.0000
vt 0.0000 0.0000
vt 1.0000 1.0000
vt 1.0000 0.0000
vt 1.0000 1.0000
vt 0.0000 0.0000
vt 1.0000 0.0000
vt 1.0000 1.0000
vt 0.0000 1.0000
vt 0.0000 0.0000
vt 1.0000 0.0000
vt 1.0000 1.0000
vt 0.0000 1.0000
vt 0.0000 0.0000
vt 1.0000 0.0000
vt 0.0000 1.0000
vt 0.0000 0.0000
vt 1.0000 1.0000
vt 1.0000 0.0000
vt 1.0000 1.0000
vt 0.0000 0.0000
vt 1.0000 0.0000
vt 1.0000 1.0000
vt 0.0000 1.0000
vt 0.0000 0.0000
vt 1.0000 0.0000
vt 1.0000 1.0000
vt 0.0000 1.0000
vt 0.0000 0.0000
vt 1.0000 0.0000
vt 0.0000 1.0000
vt 0.0000 0.0000
vt 1.0000 0.0000
vt 1.0000 1.0000
vt 0.0000 1.0000
vt 0.0000 0.0000
vt 1.0000 0.0000
vt 1.0000 1.0000
vt 0.0000 1.0000
vt 0.0000 0.0000
vt 1.0000 0.0000
vt 1.0000 1.0000
vt 0.0000 1.0000
vt 0.0000 0.0000
vt 1.0000 0.0000
vt 1.0000 1.0000
vt 0.0000 1.0000
vt 0.0000 0.0000
vt 1.0000 0.0000
vt 1.0000 1.0000
vt 0.0000 1.0000
vt 0.0000 0.0000
vt 1.0000 0.0000
vt 1.0000 1.0000
vt 0.0000 1.0000
vt 0.0000 0.0000
vt 1.0000 0.0000
vt 1.0000 1.0000
vt 0.0000 1.0000
vt 0.0000 0.0000
vt 1.0000 0.0000
vt 1.0000 1.0000
vt 0.0000 1.0000
vt 0.0000 0.0000
vt 1.0000 0.0000
vt 1.0000 1.0000
vt 0.0000 1.0000
vt 0.0000 0.0000
vt 1.0000 0.0000
vt 1.0000 1.0000
vt 0.0000 0.0000
vt 1.0000 0.0000
vt 1.0000 1.0000
vt 0.0000 1.0000
vt 0.0000 0.0000
vt 1.0000 0.0000
vt 1.0000 1.0000
vt 0.0000 1.0000
vt 0.0000 0.0000
vt 1.0000 0.0000
vt 1.0000 1.0000
vt 0.0000 1.0000
vt 0.0000 0.0000
vt 1.0000 1.0000
vt 1.0000 0.0000
vt 1.0000 1.0000
vt 0.0000 0.0000
vt 1.0000 0.0000
vt 1.0000 1.0000
vt 0.0000 1.0000
vt 0.0000 0.0000
vt 1.0000 0.0000
vt 1.0000 1.0000
vt 0.0000 1.0000
vt 0.0000 0.0000
vt 1.0000 0.0000
vt 0.0000 1.0000
vt 0.0000 0.0000
vt 1.0000 0.0000
vt 1.0000 1.0000
vt 0.0000 1.0000
vt 0.0000 0.0000
vt 1.0000 0.0000
vt 1.0000 1.0000
vt 0.0000 1.0000
vt 0.0000 0.0000
vt 1.0000 1.0000
vt 1.0000 0.0000
vt 1.0000 1.0000
vt 0.0000 0.0000
vt 1.0000 0.0000
vt 1.0000 1.0000
vt 0.0000 1.0000
vt 0.0000 0.0000
vt 1.0000 0.0000
vt 1.0000 1.0000
vt 0.0000 1.0000
vt 0.0000 0.0000
vt 1.0000 0.0000
vt 0.0000 1.0000
vt 0.0000 0.0000
vt 1.0000 0.0000
vt 1.0000 1.0000
vt 0.0000 1.0000
vn -0.5495 -0.8224 -0.1472
vn -0.9486 -0.1887 -0.2542
vn -0.8116 0.5423 -0.2175
vn -0.1948 0.9794 -0.0522
vn -0.1948 -0.9794 -0.0522
vn -0.8116 -0.5423 -0.2175
vn -0.9486 0.1887 -0.2542
vn -0.5495 0.8224 -0.1472
vn -0.1426 -0.9794 -0.1426
vn -0.5941 -0.5423 -0.5941
vn -0.6944 0.1887 -0.6944
vn -0.4023 0.8224 -0.4023
vn -0.4023 -0.8224 -0.4023
vn -0.6944 -0.1887 -0.6944
vn -0.5941 0.5423 -0.5941
vn -0.1426 0.9794 -0.1426
vn -0.2542 0.1887 -0.9486
vn -0.1472 0.8224 -0.5495
vn -0.1472 -0.8224 -0.5495
vn -0.2542 -0.1887 -0.9486
vn -0.2175 0.5423 -0.8116
vn -0.0522 0.9794 -0.1948
vn -0.0522 -0.9794 -0.1948
vn -0.2175 -0.5423 -0.8116
vn 0.1472 -0.8224 -0.5495
vn 0.2542 -0.1887 -0.9486
vn 0.2175 0.5423 -0.8116
vn 0.0522 0.9794 -0.1948
vn 0.0522 -0.9794 -0.1948
vn 0.2175 -0.5423 -0.8116
vn 0.2542 0.1887 -0.9486
vn 0.1472 0.8224 -0.5495
vn 0.5941 0.5423 -0.5941
vn 0.1426 0.9794 -0.1426
vn 0.1426 -0.9794 -0.1426
vn 0.5941 -0.5423 -0.5941
vn 0.6944 0.1887 -0.6944
vn 0.4023 0.8224 -0.4023
vn 0.4023 -0.8224 -0.4023
vn 0.6944 -0.1887 -0.6944
vn 0.1948 -0.9794 -0.0522
vn 0.8116 -0.5423 -0.2175
vn 0.9486 0.1887 -0.2542
vn 0.5495 0.8224 -0.1472
vn 0.5495 -0.8224 -0.1472
vn 0.9486 -0.1887 -0.2542
vn 0.8116 0.5423 -0.2175
vn 0.1948 0.9794 -0.0522
vn 0.5495 0.8224 0.1472
vn 0.5495 -0.8224 0.1472
vn 0.9486 -0.1887 0.2542
vn 0.8116 0.5423 0.2175
vn 0.1948 0.9794 0.0522
vn 0.1948 -0.9794 0.0522
vn 0.8116 -0.5423 0.2175
vn 0.9486 0.1887 0.2542
vn 0.4023 -0.8224 0.4023
vn 0.6944 -0.1887 0.6944
vn 0.5941 0.5423 0.5941
vn 0.1426 0.9794 0.1426
vn 0.1426 -0.9794 0.1426
vn 0.5941 -0.5423 0.5941
vn 0.6944 0.1887 0.6944
vn 0.4023 0.8224 0.4023
vn 0.0522 0.9794 0.1948
vn 0.0522 -0.9794 0.1948
vn 0.2175 -0.5423 0.8116
vn 0.2542 0.1887 0.9486
vn 0.1472 0.8224 0.5495
vn 0.1472 -0.8224 0.5495
vn 0.2542 -0.1887 0.9486
vn 0.2175 0.5423 0.8116
vn -0.2175 -0.5423 0.8116
vn -0.2542 0.1887 0.9486
vn -0.1472 0.8224 0.5495
vn -0.1472 -0.8224 0.5495
vn -0.2542 -0.1887 0.9486
vn -0.2175 0.5423 0.8116
vn -0.0522 0.9794 0.1948
vn -0.0522 -0.9794 0.1948
vn -0.4023 -0.8224 0.4023
vn -0.6944 -0.1887 0.6944
vn -0.5941 0.5423 0.5941
vn -0.1426 0.9794 0.1426
vn -0.1426 -0.9794 0.1426
vn -0.5941 -0.5423 0.5941
vn -0.6944 0.1887 0.6944
vn -0.4023 0.8224 0.4023
vn -0.9486 -0.1887 0.2542
vn -0.8116 0.5423 0.2175
vn -0.1948 0.9794 0.0522
vn -0.1948 -0.9794 0.0522
vn -0.8116 -0.5423 0.2175
vn -0.9486 0.1887 0.2542
vn -0.5495 0.8224 0.1472
vn -0.5495 -0.8224 0.1472
s off
f 7/1/1 6/2/1 13/3/1 14/4/1
f 5/5/2 4/6/2 11/7/2 12/8/2
f 3/9/3 2/10/3 9/11/3 10/12/3
f 1/13/4 37/14/4 8/15/4
f 15/16/5 7/17/5 14/18/5
f 6/19/6 5/20/6 12/21/6 13/22/6
f 4/23/7 3/24/7 10/25/7 11/26/7
f 2/27/8 1/28/8 8/15/8 9/29/8
f 15/16/9 14/30/9 22/31/9
f 13/32/10 12/33/10 20/34/10 21/35/10
f 11/36/11 10/37/11 18/38/11 19/39/11
f 9/40/12 8/41/12 16/42/12 17/43/12
f 14/44/13 13/45/13 21/46/13 22/47/13
f 12/48/14 11/49/14 19/50/14 20/51/14
f 10/52/15 9/53/15 17/54/15 18/55/15
f 8/56/16 37/14/16 16/42/16
f 19/57/17 18/58/17 25/59/17 26/60/17
f 17/61/18 16/62/18 23/63/18 24/64/18
f 22/65/19 21/66/19 28/67/19 29/68/19
f 20/69/20 19/70/20 26/71/20 27/72/20
f 18/73/21 17/74/21 24/75/21 25/76/21
f 16/77/22 37/14/22 23/63/22
f 15/16/23 22/78/23 29/79/23
f 21/80/24 20/81/24 27/82/24 28/83/24
f 29/84/25 28/85/25 35/86/25 36/87/25
f 27/88/26 26/89/26 33/90/26 34/91/26
f 25/92/27 24/93/27 31/94/27 32/95/27
f 23/96/28 37/14/28 30/97/28
f 15/16/29 29/98/29 36/99/29
f 28/100/30 27/101/30 34/102/30 35/103/30
f 26/104/31 25/105/31 32/106/31 33/107/31
f 24/108/32 23/109/32 30/97/32 31/110/32
f 32/111/33 31/112/33 39/113/33 40/114/33
f 30/115/34 37/14/34 38/116/34
f 15/16/35 36/117/35 44/118/35
f 35/119/36 34/120/36 42/121/36 43/122/36
f 33/123/37 32/124/37 40/125/37 41/126/37
f 31/127/38 30/128/38 38/116/38 39/129/38
f 36/130/39 35/131/39 43/132/39 44/133/39
f 34/134/40 33/135/40 41/136/40 42/137/40
f 15/16/41 44/138/41 51/139/41
f 43/140/42 42/141/42 49/142/42 50/143/42
f 41/144/43 40/145/43 47/146/43 48/147/43
f 39/148/44 38/149/44 45/150/44 46/151/44
f 44/152/45 43/153/45 50/154/45 51/155/45
f 42/156/46 41/157/46 48/158/46 49/159/46
f 40/160/47 39/161/47 46/162/47 47/163/47
f 38/164/48 37/14/48 45/150/48
f 46/165/49 45/166/49 52/167/49 53/168/49
f 51/169/50 50/170/50 57/171/50 58/172/50
f 49/173/51 48/174/51 55/175/51 56/176/51
f 47/177/52 46/178/52 53/179/52 54/180/52
f 45/181/53 37/14/53 52/167/53
f 15/16/54 51/182/54 58/183/54
f 50/184/55 49/185/55 56/186/55 57/187/55
f 48/188/56 47/189/56 54/190/56 55/191/56
f 58/192/57 57/193/57 64/194/57 65/195/57
f 56/196/58 55/197/58 62/198/58 63/199/58
f 54/200/59 53/201/59 60/202/59 61/203/59
f 52/204/60 37/14/60 59/205/60
f 15/16/61 58/206/61 65/207/61
f 57/208/62 56/209/62 63/210/62 64/211/62
f 55/212/63 54/213/63 61/214/63 62/215/63
f 53/216/64 52/217/64 59/205/64 60/218/64
f 59/219/65 37/14/65 66/220/65
f 15/16/66 65/221/66 72/222/66
f 64/223/67 63/224/67 70/225/67 71/226/67
f 62/227/68 61/228/68 68/229/68 69/230/68
f 60/231/69 59/232/69 66/220/69 67/233/69
f 65/234/70 64/235/70 71/236/70 72/237/70
f 63/238/71 62/239/71 69/240/71 70/241/71
f 61/242/72 60/243/72 67/244/72 68/245/72
f 71/246/73 70/247/73 77/248/73 78/249/73
f 69/250/74 68/251/74 75/252/74 76/253/74
f 67/254/75 66/255/75 73/256/75 74/257/75
f 72/258/76 71/259/76 78/260/76 79/261/76
f 70/262/77 69/263/77 76/264/77 77/265/77
f 68/266/78 67/267/78 74/268/78 75/269/78
f 66/270/79 37/14/79 73/256/79
f 15/16/80 72/271/80 79/272/80
f 79/273/81 78/274/81 85/275/81 86/276/81
f 77/277/82 76/278/82 83/279/82 84/280/82
f 75/281/83 74/282/83 81/283/83 82/284/83
f 73/285/84 37/14/84 80/286/84
f 15/16/85 79/287/85 86/288/85
f 78/289/86 77/290/86 84/291/86 85/292/86
f 76/293/87 75/294/87 82/295/87 83/296/87
f 74/297/88 73/298/88 80/286/88 81/299/88
f 84/300/89 83/301/89 4/302/89 5/303/89
f 82/304/90 81/305/90 2/306/90 3/307/90
f 80/308/91 37/14/91 1/309/91
f 15/16/92 86/310/92 7/311/92
f 85/312/93 84/313/93 5/314/93 6/315/93
f 83/316/94 82/317/94 3/318/94 4/319/94
f 81/320/95 80/321/95 1/309/95 2/322/95
f 86/323/96 85/324/96 6/325/96 7/326/96
