# Blender v2.77 (sub 0) OBJ File: ''
# www.blender.org
o Sphere
v -0.191342 0.461940 0.000000
v -0.353554 0.353553 0.000000
v -0.461940 0.191342 0.000000
v -0.500000 -0.000000 0.000000
v -0.461940 -0.191342 0.000000
v -0.353554 -0.353553 0.000000
v -0.191342 -0.461940 0.000000
v -0.176777 0.461940 -0.073223
v -0.326641 0.353553 -0.135299
v -0.426777 0.191342 -0.176777
v -0.461940 -0.000000 -0.191342
v -0.426777 -0.191342 -0.176777
v -0.326641 -0.353553 -0.135299
v -0.176777 -0.461940 -0.073223
v -0.135299 0.461940 -0.135299
v -0.250000 0.353553 -0.250000
v -0.326641 0.191342 -0.326641
v -0.353554 -0.000000 -0.353553
v -0.326641 -0.191342 -0.326641
v -0.250000 -0.353553 -0.250000
v -0.135299 -0.461940 -0.135299
v -0.000000 -0.500000 0.000000
v -0.073223 0.461940 -0.176777
v -0.135299 0.353553 -0.326641
v -0.176777 0.191342 -0.426777
v -0.191342 -0.000000 -0.461940
v -0.176777 -0.191342 -0.426777
v -0.135299 -0.353553 -0.326641
v -0.073223 -0.461940 -0.176777
v -0.000000 0.461940 -0.191342
v -0.000000 0.353553 -0.353553
v -0.000000 0.191342 -0.461940
v -0.000000 -0.000000 -0.500000
v -0.000000 -0.191342 -0.461940
v -0.000000 -0.353553 -0.353553
v -0.000000 -0.461940 -0.191342
v 0.073223 0.461940 -0.176777
v 0.135299 0.353553 -0.326641
v 0.176777 0.191342 -0.426777
v 0.191342 -0.000000 -0.461940
v 0.176777 -0.191342 -0.426777
v 0.135299 -0.353553 -0.326641
v 0.073223 -0.461940 -0.176777
v -0.000000 0.500000 0.000000
v 0.135299 0.461940 -0.135299
v 0.250000 0.353553 -0.250000
v 0.326641 0.191342 -0.326641
v 0.353553 -0.000000 -0.353553
v 0.326641 -0.191342 -0.326641
v 0.250000 -0.353553 -0.250000
v 0.135299 -0.461940 -0.135299
v 0.176776 0.461940 -0.073223
v 0.326640 0.353553 -0.135299
v 0.426776 0.191342 -0.176777
v 0.461939 -0.000000 -0.191342
v 0.426776 -0.191342 -0.176777
v 0.326640 -0.353553 -0.135299
v 0.176776 -0.461940 -0.073223
v 0.191341 0.461940 0.000000
v 0.353553 0.353553 0.000000
v 0.461939 0.191342 0.000000
v 0.500000 -0.000000 0.000000
v 0.461939 -0.191342 0.000000
v 0.353553 -0.353553 0.000000
v 0.191341 -0.461940 0.000000
v 0.176776 0.461940 0.073223
v 0.326640 0.353553 0.135299
v 0.426776 0.191342 0.176777
v 0.461939 -0.000000 0.191342
v 0.426776 -0.191342 0.176777
v 0.326640 -0.353553 0.135299
v 0.176776 -0.461940 0.073223
v 0.135299 0.461940 0.135299
v 0.250000 0.353553 0.250000
v 0.326640 0.191342 0.326641
v 0.353553 -0.000000 0.353553
v 0.326640 -0.191342 0.326641
v 0.250000 -0.353553 0.250000
v 0.135299 -0.461940 0.135299
v 0.073223 0.461940 0.176777
v 0.135299 0.353553 0.326641
v 0.176776 0.191342 0.426777
v 0.191341 -0.000000 0.461940
v 0.176776 -0.191342 0.426777
v 0.135299 -0.353553 0.326641
v 0.073223 -0.461940 0.176777
v -0.000000 0.461940 0.191342
v -0.000000 0.353553 0.353553
v -0.000000 0.191342 0.461940
v -0.000000 -0.000000 0.500000
v -0.000000 -0.191342 0.461940
v -0.000000 -0.353553 0.353553
v -0.000000 -0.461940 0.191342
v -0.073224 0.461940 0.176777
v -0.135299 0.353553 0.326641
v -0.176777 0.191342 0.426776
v -0.191342 -0.000000 0.461939
v -0.176777 -0.191342 0.426776
v -0.135299 -0.353553 0.326641
v -0.073224 -0.461940 0.176777
v -0.135299 0.461940 0.135299
v -0.250000 0.353553 0.250000
v -0.326641 0.191342 0.326640
v -0.353554 -0.000000 0.353553
v -0.326641 -0.191342 0.326640
v -0.250000 -0.353553 0.250000
v -0.135299 -0.461940 0.135299
v -0.176777 0.461940 0.073223
v -0.326641 0.353553 0.135299
v -0.426777 0.191342 0.176776
v -0.461940 -0.000000 0.191341
v -0.426777 -0.191342 0.176776
v -0.326641 -0.353553 0.135299
v -0.176777 -0.461940 0.073223
vt 0.5913 0.5542
vt 0.5673 0.6670
vt 0.5428 0.6353
vt 0.4098 0.4043
vt 0.5077 0.5000
vt 0.4219 0.4810
vt 0.5855 0.4043
vt 0.6777 0.4268
vt 0.5975 0.4810
vt 0.7828 0.1129
vt 0.8299 0.2085
vt 0.7583 0.1446
vt 0.4910 0.7310
vt 0.6292 0.5000
vt 0.6366 0.6129
vt 0.4946 0.4170
vt 0.7022 0.0904
vt 0.7476 0.0317
vt 0.7450 0.1861
vt 0.5806 0.7085
vt 0.9389 0.5910
vt 0.8510 0.5000
vt 0.9107 0.5064
vt 0.9389 0.8164
vt 0.8644 0.6908
vt 0.9489 0.6998
vt 0.6777 0.1670
vt 0.8609 0.5826
vt 0.9107 0.9229
vt 0.8609 0.8080
vt 0.7764 0.5826
vt 0.7863 0.5000
vt 0.7729 0.6908
vt 0.6777 0.2500
vt 0.6611 0.6895
vt 0.5806 0.7534
vt 0.8510 0.9164
vt 0.7764 0.8080
vt 0.7450 0.2310
vt 0.6366 0.8491
vt 0.5673 0.7949
vt 0.6983 0.5910
vt 0.7266 0.9229
vt 0.6983 0.8164
vt 0.7583 0.2724
vt 0.7266 0.5064
vt 0.6884 0.6998
vt 0.7022 0.3266
vt 0.1700 0.5000
vt 0.2679 0.4043
vt 0.2559 0.4810
vt 0.0000 0.4268
vt 0.0922 0.4043
vt 0.0802 0.4810
vt 0.7828 0.3042
vt 0.5428 0.8266
vt 0.6884 0.8853
vt 0.5913 0.9077
vt 0.1831 0.4170
vt 0.7476 0.3853
vt 0.5107 0.8438
vt 0.3339 0.3681
vt 0.2745 0.3042
vt 0.3389 0.2915
vt 0.1901 0.3087
vt 0.8068 0.4170
vt 0.5321 0.9395
vt 0.0092 0.3681
vt 0.0988 0.3042
vt 0.8149 0.3214
vt 0.0988 0.1958
vt 0.1901 0.1913
vt 0.8709 0.4170
vt 0.4760 0.8438
vt 0.2745 0.1958
vt 0.0142 0.2915
vt 0.8496 0.3214
vt 0.3389 0.2085
vt 0.4679 0.9395
vt 0.4440 0.8266
vt 0.2679 0.0957
vt 0.0142 0.2085
vt 0.0922 0.0957
vt 0.8816 0.3042
vt 0.3339 0.1319
vt 0.1831 0.0830
vt 0.9301 0.3853
vt 0.0092 0.1319
vt 0.0802 0.0190
vt 0.9061 0.2724
vt 0.4194 0.7949
vt 0.0802 0.5190
vt 0.0092 0.6319
vt 0.0000 0.5732
vt 0.1700 0.0000
vt 0.9755 0.3266
vt 0.3634 0.8491
vt 0.1700 0.5000
vt 0.0922 0.5957
vt 0.4061 0.7534
vt 0.0988 0.6958
vt 0.0142 0.7085
vt 0.1831 0.5830
vt 0.2745 0.6958
vt 0.1901 0.6913
vt 0.9194 0.2310
vt 1.0000 0.2500
vt 0.3389 0.7724
vt 0.3339 0.6319
vt 0.2679 0.5957
vt 1.0000 0.1670
vt 0.4061 0.7085
vt 0.0988 0.8042
vt 0.3389 0.7085
vt 0.2745 0.8042
vt 0.9194 0.1861
vt 0.0142 0.7915
vt 0.1901 0.8087
vt 0.3634 0.6129
vt 0.4194 0.6670
vt 0.0922 0.9043
vt 0.3389 0.7915
vt 0.2679 0.9043
vt 0.9061 0.1446
vt 0.0092 0.8681
vt 0.1831 0.9170
vt 0.9755 0.0904
vt 0.8816 0.1129
vt 0.4440 0.6353
vt 0.0000 0.9268
vt 0.5077 0.0000
vt 0.5855 0.0957
vt 0.4946 0.0830
vt 0.9301 0.0317
vt 0.4087 0.5542
vt 0.0802 0.9810
vt 0.6777 0.0732
vt 0.5975 0.0190
vt 0.4098 0.0957
vt 0.3389 0.2085
vt 0.3439 0.1319
vt 0.4876 0.1913
vt 0.8496 0.0957
vt 0.8709 0.0000
vt 0.4679 0.5224
vt 0.4760 0.6181
vt 0.4033 0.1958
vt 0.6685 0.1319
vt 0.5789 0.1958
vt 0.5107 0.6181
vt 0.4033 0.3042
vt 0.6635 0.2085
vt 0.5789 0.3042
vt 0.8149 0.0957
vt 0.3389 0.2915
vt 0.4876 0.3087
vt 0.8068 0.0000
vt 0.6685 0.3681
vt 0.3439 0.3681
vt 0.5321 0.5224
vt 0.6884 0.5766
vt 0.6611 0.7724
vt 0.7863 0.9164
vt 0.6292 0.9619
vt 0.4087 0.9077
vt 0.0000 0.0732
vt 0.3389 0.6895
vt 0.3339 0.8681
vt 0.1700 1.0000
vt 0.6635 0.2915
vn -0.5522 -0.8264 -0.1098
vn -0.9626 -0.1915 -0.1915
vn -0.8203 0.5481 -0.1632
vn -0.1949 0.9800 -0.0388
vn -0.1949 -0.9800 -0.0388
vn -0.8203 -0.5481 -0.1632
vn -0.9626 0.1915 -0.1915
vn -0.5522 0.8264 -0.1098
vn -0.1653 0.9800 -0.1104
vn -0.1653 -0.9800 -0.1104
vn -0.6954 -0.5481 -0.4647
vn -0.8161 0.1915 -0.5453
vn -0.4681 0.8264 -0.3128
vn -0.4681 -0.8264 -0.3128
vn -0.8161 -0.1915 -0.5453
vn -0.6954 0.5481 -0.4647
vn -0.4647 -0.5481 -0.6954
vn -0.5453 0.1915 -0.8161
vn -0.3128 0.8264 -0.4681
vn -0.3128 -0.8264 -0.4681
vn -0.5453 -0.1915 -0.8161
vn -0.4647 0.5481 -0.6954
vn -0.1104 0.9800 -0.1653
vn -0.1104 -0.9800 -0.1653
vn -0.1098 -0.8264 -0.5522
vn -0.1915 -0.1915 -0.9626
vn -0.1632 0.5481 -0.8203
vn -0.0388 0.9800 -0.1949
vn -0.0388 -0.9800 -0.1949
vn -0.1632 -0.5481 -0.8203
vn -0.1915 0.1915 -0.9626
vn -0.1098 0.8264 -0.5522
vn 0.1915 -0.1915 -0.9626
vn 0.1632 0.5481 -0.8203
vn 0.0388 0.9800 -0.1949
vn 0.0388 -0.9800 -0.1949
vn 0.1632 -0.5481 -0.8203
vn 0.1915 0.1915 -0.9626
vn 0.1098 0.8264 -0.5522
vn 0.1098 -0.8264 -0.5522
vn 0.1104 -0.9800 -0.1653
vn 0.4647 -0.5481 -0.6954
vn 0.5453 0.1915 -0.8161
vn 0.3128 0.8264 -0.4681
vn 0.3128 -0.8264 -0.4681
vn 0.5453 -0.1915 -0.8161
vn 0.4647 0.5481 -0.6954
vn 0.1104 0.9800 -0.1653
vn 0.8161 0.1915 -0.5453
vn 0.4681 0.8264 -0.3128
vn 0.4681 -0.8264 -0.3128
vn 0.8161 -0.1915 -0.5453
vn 0.6954 0.5481 -0.4647
vn 0.1653 0.9800 -0.1104
vn 0.1653 -0.9800 -0.1104
vn 0.6954 -0.5481 -0.4647
vn 0.5522 -0.8264 -0.1098
vn 0.9626 -0.1915 -0.1915
vn 0.8203 0.5481 -0.1632
vn 0.1949 0.9800 -0.0388
vn 0.1949 -0.9800 -0.0388
vn 0.8203 -0.5481 -0.1632
vn 0.9626 0.1915 -0.1915
vn 0.5522 0.8264 -0.1098
vn 0.8203 0.5481 0.1632
vn 0.1949 0.9800 0.0388
vn 0.1949 -0.9800 0.0388
vn 0.8203 -0.5481 0.1632
vn 0.9626 0.1915 0.1915
vn 0.5522 0.8264 0.1098
vn 0.5522 -0.8264 0.1098
vn 0.9626 -0.1915 0.1915
vn 0.1653 -0.9800 0.1104
vn 0.6954 -0.5481 0.4647
vn 0.8161 0.1915 0.5453
vn 0.4681 0.8264 0.3128
vn 0.4681 -0.8264 0.3128
vn 0.8161 -0.1915 0.5453
vn 0.6954 0.5481 0.4647
vn 0.1653 0.9800 0.1104
vn 0.3128 0.8264 0.4681
vn 0.3128 -0.8264 0.4681
vn 0.5453 -0.1915 0.8161
vn 0.4647 0.5481 0.6954
vn 0.1104 0.9800 0.1653
vn 0.1104 -0.9800 0.1653
vn 0.4647 -0.5481 0.6954
vn 0.5453 0.1915 0.8161
vn 0.1098 -0.8264 0.5522
vn 0.1915 -0.1915 0.9626
vn 0.1632 0.5481 0.8203
vn 0.0388 0.9800 0.1949
vn 0.0388 -0.9800 0.1949
vn 0.1632 -0.5481 0.8203
vn 0.1915 0.1915 0.9626
vn 0.1098 0.8264 0.5522
vn -0.0388 0.9800 0.1949
vn -0.0388 -0.9800 0.1949
vn -0.1632 -0.5481 0.8203
vn -0.1915 0.1915 0.9626
vn -0.1098 0.8264 0.5522
vn -0.1098 -0.8264 0.5522
vn -0.1915 -0.1915 0.9626
vn -0.1632 0.5481 0.8203
vn -0.4647 -0.5481 0.6954
vn -0.5453 0.1915 0.8161
vn -0.3128 0.8264 0.4681
vn -0.3128 -0.8264 0.4681
vn -0.5453 -0.1915 0.8161
vn -0.4647 0.5481 0.6954
vn -0.1104 0.9800 0.1653
vn -0.1104 -0.9800 0.1653
vn -0.4681 -0.8264 0.3128
vn -0.8161 -0.1915 0.5453
vn -0.6954 0.5481 0.4647
vn -0.1653 0.9800 0.1104
vn -0.1653 -0.9800 0.1104
vn -0.6954 -0.5481 0.4647
vn -0.8161 0.1915 0.5453
vn -0.4681 0.8264 0.3128
vn -0.9626 -0.1915 0.1915
vn -0.8203 0.5481 0.1632
vn -0.1949 0.9800 0.0388
vn -0.1949 -0.9800 0.0388
vn -0.8203 -0.5481 0.1632
vn -0.9626 0.1915 0.1915
vn -0.5522 0.8264 0.1098
vn -0.5522 -0.8264 0.1098
s off
f 6/1/1 14/2/1 7/3/1
f 5/4/2 11/5/2 12/6/2
f 3/7/3 9/8/3 10/9/3
f 1/10/4 44/11/4 8/12/4
f 22/13/5 7/3/5 14/2/5
f 5/14/6 13/15/6 6/1/6
f 3/7/7 11/5/7 4/16/7
f 1/10/8 9/17/8 2/18/8
f 8/12/9 44/11/9 15/19/9
f 22/13/10 14/2/10 21/20/10
f 12/21/11 20/22/11 13/23/11
f 10/24/12 18/25/12 11/26/12
f 8/12/13 16/27/13 9/17/13
f 13/15/14 21/20/14 14/2/14
f 11/26/15 19/28/15 12/21/15
f 9/29/16 17/30/16 10/24/16
f 20/22/17 27/31/17 28/32/17
f 17/30/18 26/33/18 18/25/18
f 15/19/19 24/34/19 16/27/19
f 20/35/20 29/36/20 21/20/20
f 18/25/21 27/31/21 19/28/21
f 16/37/22 25/38/22 17/30/22
f 15/19/23 44/11/23 23/39/23
f 22/13/24 21/20/24 29/36/24
f 29/36/25 35/40/25 36/41/25
f 26/33/26 34/42/26 27/31/26
f 25/38/27 31/43/27 32/44/27
f 23/39/28 44/11/28 30/45/28
f 22/13/29 29/36/29 36/41/29
f 27/31/30 35/46/30 28/32/30
f 25/38/31 33/47/31 26/33/31
f 23/39/32 31/48/32 24/34/32
f 33/49/33 41/50/33 34/51/33
f 31/52/34 39/53/34 32/54/34
f 30/45/35 44/11/35 37/55/35
f 22/13/36 36/41/36 43/56/36
f 34/57/37 42/58/37 35/40/37
f 32/54/38 40/59/38 33/49/38
f 31/48/39 37/55/39 38/60/39
f 35/40/40 43/56/40 36/41/40
f 22/13/41 43/56/41 51/61/41
f 42/62/42 49/63/42 50/64/42
f 39/53/43 48/65/43 40/59/43
f 37/55/44 46/66/44 38/60/44
f 43/56/45 50/67/45 51/61/45
f 40/59/46 49/63/46 41/50/46
f 38/68/47 47/69/47 39/53/47
f 37/55/48 44/11/48 45/70/48
f 48/65/49 54/71/49 55/72/49
f 45/70/50 53/73/50 46/66/50
f 50/67/51 58/74/51 51/61/51
f 49/63/52 55/72/52 56/75/52
f 46/76/53 54/71/53 47/69/53
f 45/70/54 44/11/54 52/77/54
f 22/13/55 51/61/55 58/74/55
f 50/64/56 56/75/56 57/78/56
f 57/79/57 65/80/57 58/74/57
f 55/72/58 63/81/58 56/75/58
f 53/82/59 61/83/59 54/71/59
f 52/77/60 44/11/60 59/84/60
f 22/13/61 58/74/61 65/80/61
f 57/78/62 63/81/62 64/85/62
f 54/71/63 62/86/63 55/72/63
f 53/73/64 59/84/64 60/87/64
f 60/88/65 68/89/65 61/83/65
f 59/84/66 44/11/66 66/90/66
f 22/13/67 65/80/67 72/91/67
f 63/92/68 71/93/68 64/94/68
f 62/86/69 68/89/69 69/95/69
f 60/87/70 66/90/70 67/96/70
f 65/80/71 71/97/71 72/91/71
f 62/98/72 70/99/72 63/92/72
f 22/13/73 72/91/73 79/100/73
f 71/93/74 77/101/74 78/102/74
f 69/103/75 75/104/75 76/105/75
f 67/96/76 73/106/76 74/107/76
f 72/91/77 78/108/77 79/100/77
f 70/99/78 76/105/78 77/101/78
f 67/109/79 75/104/79 68/110/79
f 66/90/80 44/11/80 73/106/80
f 73/106/81 81/111/81 74/107/81
f 78/108/82 86/112/82 79/100/82
f 76/105/83 84/113/83 77/101/83
f 74/114/84 82/115/84 75/104/84
f 73/106/85 44/11/85 80/116/85
f 22/13/86 79/100/86 86/112/86
f 77/101/87 85/117/87 78/102/87
f 76/105/88 82/115/88 83/118/88
f 86/112/89 92/119/89 93/120/89
f 83/118/90 91/121/90 84/113/90
f 81/122/91 89/123/91 82/115/91
f 80/116/92 44/11/92 87/124/92
f 22/13/93 86/112/93 93/120/93
f 84/113/94 92/125/94 85/117/94
f 83/118/95 89/123/95 90/126/95
f 81/111/96 87/124/96 88/127/96
f 87/124/97 44/11/97 94/128/97
f 22/13/98 93/120/98 100/129/98
f 91/121/99 99/130/99 92/125/99
f 90/131/100 96/132/100 97/133/100
f 88/127/101 94/128/101 95/134/101
f 93/120/102 99/135/102 100/129/102
f 90/126/103 98/136/103 91/121/103
f 88/137/104 96/132/104 89/138/104
f 98/139/105 106/140/105 99/141/105
f 96/132/106 104/142/106 97/133/106
f 95/134/107 101/143/107 102/144/107
f 100/129/108 106/145/108 107/146/108
f 97/133/109 105/147/109 98/139/109
f 95/148/110 103/149/110 96/132/110
f 94/128/111 44/11/111 101/143/111
f 22/13/112 100/129/112 107/146/112
f 106/145/113 114/150/113 107/146/113
f 104/142/114 112/151/114 105/147/114
f 102/152/115 110/153/115 103/149/115
f 101/143/116 44/11/116 108/154/116
f 22/13/117 107/146/117 114/150/117
f 106/140/118 112/151/118 113/155/118
f 104/142/119 110/153/119 111/156/119
f 102/144/120 108/154/120 109/157/120
f 111/156/121 5/4/121 112/151/121
f 110/153/122 2/158/122 3/7/122
f 108/154/123 44/11/123 1/10/123
f 22/13/124 114/150/124 7/3/124
f 112/151/125 6/159/125 113/155/125
f 111/156/126 3/7/126 4/16/126
f 109/157/127 1/10/127 2/18/127
f 113/160/128 7/3/128 114/150/128
f 6/1/1 13/15/1 14/2/1
f 5/4/2 4/16/2 11/5/2
f 3/7/3 2/158/3 9/8/3
f 5/14/6 12/161/6 13/15/6
f 3/7/7 10/9/7 11/5/7
f 1/10/8 8/12/8 9/17/8
f 12/21/11 19/28/11 20/22/11
f 10/24/12 17/30/12 18/25/12
f 8/12/13 15/19/13 16/27/13
f 13/15/14 20/35/14 21/20/14
f 11/26/15 18/25/15 19/28/15
f 9/29/16 16/37/16 17/30/16
f 20/22/17 19/28/17 27/31/17
f 17/30/18 25/38/18 26/33/18
f 15/19/19 23/39/19 24/34/19
f 20/35/20 28/162/20 29/36/20
f 18/25/21 26/33/21 27/31/21
f 16/37/22 24/163/22 25/38/22
f 29/36/25 28/162/25 35/40/25
f 26/33/26 33/47/26 34/42/26
f 25/38/27 24/163/27 31/43/27
f 27/31/30 34/42/30 35/46/30
f 25/38/31 32/44/31 33/47/31
f 23/39/32 30/45/32 31/48/32
f 33/49/33 40/59/33 41/50/33
f 31/52/34 38/68/34 39/53/34
f 34/57/37 41/164/37 42/58/37
f 32/54/38 39/53/38 40/59/38
f 31/48/39 30/45/39 37/55/39
f 35/40/40 42/58/40 43/56/40
f 42/62/42 41/50/42 49/63/42
f 39/53/43 47/69/43 48/65/43
f 37/55/44 45/70/44 46/66/44
f 43/56/45 42/58/45 50/67/45
f 40/59/46 48/65/46 49/63/46
f 38/68/47 46/76/47 47/69/47
f 48/65/49 47/69/49 54/71/49
f 45/70/50 52/77/50 53/73/50
f 50/67/51 57/79/51 58/74/51
f 49/63/52 48/65/52 55/72/52
f 46/76/53 53/82/53 54/71/53
f 50/64/56 49/63/56 56/75/56
f 57/79/57 64/165/57 65/80/57
f 55/72/58 62/86/58 63/81/58
f 53/82/59 60/88/59 61/83/59
f 57/78/62 56/75/62 63/81/62
f 54/71/63 61/83/63 62/86/63
f 53/73/64 52/77/64 59/84/64
f 60/88/65 67/166/65 68/89/65
f 63/92/68 70/99/68 71/93/68
f 62/86/69 61/83/69 68/89/69
f 60/87/70 59/84/70 66/90/70
f 65/80/71 64/165/71 71/97/71
f 62/98/72 69/103/72 70/99/72
f 71/93/74 70/99/74 77/101/74
f 69/103/75 68/110/75 75/104/75
f 67/96/76 66/90/76 73/106/76
f 72/91/77 71/97/77 78/108/77
f 70/99/78 69/103/78 76/105/78
f 67/109/79 74/114/79 75/104/79
f 73/106/81 80/116/81 81/111/81
f 78/108/82 85/167/82 86/112/82
f 76/105/83 83/118/83 84/113/83
f 74/114/84 81/122/84 82/115/84
f 77/101/87 84/113/87 85/117/87
f 76/105/88 75/104/88 82/115/88
f 86/112/89 85/167/89 92/119/89
f 83/118/90 90/126/90 91/121/90
f 81/122/91 88/168/91 89/123/91
f 84/113/94 91/121/94 92/125/94
f 83/118/95 82/115/95 89/123/95
f 81/111/96 80/116/96 87/124/96
f 91/121/99 98/136/99 99/130/99
f 90/131/100 89/138/100 96/132/100
f 88/127/101 87/124/101 94/128/101
f 93/120/102 92/119/102 99/135/102
f 90/126/103 97/169/103 98/136/103
f 88/137/104 95/148/104 96/132/104
f 98/139/105 105/147/105 106/140/105
f 96/132/106 103/149/106 104/142/106
f 95/134/107 94/128/107 101/143/107
f 100/129/108 99/135/108 106/145/108
f 97/133/109 104/142/109 105/147/109
f 95/148/110 102/152/110 103/149/110
f 106/145/113 113/160/113 114/150/113
f 104/142/114 111/156/114 112/151/114
f 102/152/115 109/170/115 110/153/115
f 106/140/118 105/147/118 112/151/118
f 104/142/119 103/149/119 110/153/119
f 102/144/120 101/143/120 108/154/120
f 111/156/121 4/16/121 5/4/121
f 110/153/122 109/170/122 2/158/122
f 112/151/125 5/4/125 6/159/125
f 111/156/126 110/153/126 3/7/126
f 109/157/127 108/154/127 1/10/127
f 113/160/128 6/1/128 7/3/128
